<?xml version="1.0" encoding="UTF-8" standalone="no"?>
<svg
   width="210mm"
   height="60mm"
   version="1.1"
   viewBox="0 0 595.27522 170.07863"
   id="svg116"
   sodipodi:docname="drop-the-mark-full-brand-color-2.svg"
   xml:space="preserve"
   inkscape:version="1.2.1 (9c6d41e410, 2022-07-14)"
   inkscape:export-filename="drop-the-mark-full-brand-color-2.png"
   inkscape:export-xdpi="172.71"
   inkscape:export-ydpi="172.71"
   xmlns:inkscape="http://www.inkscape.org/namespaces/inkscape"
   xmlns:sodipodi="http://sodipodi.sourceforge.net/DTD/sodipodi-0.dtd"
   xmlns="http://www.w3.org/2000/svg"
   xmlns:svg="http://www.w3.org/2000/svg"><g
     id="g4388"><path
       style="fill:#f8ff18;fill-opacity:1;stroke:#f8ff18;stroke-width:1;stroke-linecap:round;stroke-linejoin:round;stroke-dasharray:none;stroke-dashoffset:0;stroke-opacity:1;paint-order:fill markers stroke;stop-color:#000000"
       d="m 252.72139,116.49911 c -0.47138,-0.71942 -0.48438,-0.93138 -0.0914,-1.49034 0.33432,-0.47554 16.55764,-13.59849 23.30278,-18.849478 0.29645,-0.230775 2.04785,0.985576 6.13472,4.260578 3.1459,2.52097 6.24003,4.89049 6.87584,5.26563 1.38154,0.81513 3.97588,0.90777 5.40842,0.19312 0.53905,-0.26891 3.64996,-2.63364 6.91314,-5.25496 3.26318,-2.621318 6.11145,-4.68432 6.32949,-4.584443 1.19393,0.54687 23.51328,18.886233 23.60841,19.398553 0.0624,0.33592 -0.1491,0.90085 -0.46997,1.2554 -0.56942,0.6292 -1.50364,0.64464 -39.02263,0.64464 h -38.43926 z"
       id="path3497" /><path
       style="fill:#f8ff18;fill-opacity:1;stroke:#f8ff18;stroke-width:1;stroke-linecap:round;stroke-linejoin:round;stroke-dasharray:none;stroke-dashoffset:0;stroke-opacity:1;paint-order:fill markers stroke;stop-color:#000000"
       d="m 252.26937,92.977755 c 0,-13.193843 0.0325,-16.514198 0.16076,-16.435867 0.22846,0.139507 20.04497,15.978007 20.33586,16.253594 0.23237,0.220148 -0.10663,0.505568 -10.06272,8.472068 -5.66675,4.53433 -10.3326,8.24423 -10.36855,8.24423 -0.0359,0 -0.0653,-7.44031 -0.0653,-16.534025 z"
       id="path4358" /><path
       style="fill:#f8ff18;fill-opacity:1;stroke:#f8ff18;stroke-width:1;stroke-linecap:round;stroke-linejoin:round;stroke-dasharray:none;stroke-dashoffset:0;stroke-opacity:1;paint-order:fill markers stroke;stop-color:#000000"
       d="m 321.09823,101.41746 c -5.5405,-4.441373 -10.15965,-8.16123 -10.26477,-8.26635 -0.16911,-0.169103 0.98458,-1.131638 10.00933,-8.35092 5.61026,-4.487888 10.27281,-8.204048 10.36124,-8.25813 0.12828,-0.07847 0.16076,3.241762 0.16076,16.435695 0,9.093715 -0.0434,16.529725 -0.0965,16.524475 -0.053,-0.005 -4.6296,-3.6434 -10.1701,-8.08477 z"
       id="path4360" /><path
       style="fill:#f8ff18;fill-opacity:1;stroke:#f8ff18;stroke-width:1;stroke-linecap:round;stroke-linejoin:round;stroke-dasharray:none;stroke-dashoffset:0;stroke-opacity:1;paint-order:fill markers stroke;stop-color:#000000"
       d="m 327.8923,70.369841 c 0,-1.956196 0.0217,-3.55672 0.0483,-3.55672 0.19799,0 3.02145,2.417764 3.19911,2.739435 0.52675,0.953731 0.21436,1.576993 -1.46511,2.923146 -0.73269,0.587276 -1.43345,1.153968 -1.55724,1.259317 -0.21354,0.181733 -0.22506,0.0094 -0.22506,-3.365178 z"
       id="path4362" /><path
       style="fill:#f8ff18;fill-opacity:1;stroke:#f8ff18;stroke-width:1;stroke-linecap:round;stroke-linejoin:round;stroke-dasharray:none;stroke-dashoffset:0;stroke-opacity:1;paint-order:fill markers stroke;stop-color:#000000"
       d="m 286.93631,41.754005 c 0.41994,-0.373575 3.46574,-2.771915 3.86008,-3.03952 0.52082,-0.353444 1.28955,-0.430337 1.76395,-0.176444 0.15192,0.08131 1.16734,0.862614 2.25648,1.736241 l 1.98026,1.588415 h -4.99147 c -2.74531,0 -4.9365,-0.04891 -4.8693,-0.108692 z"
       id="path4364" /><path
       style="fill:#f8ff18;fill-opacity:1;stroke:#f8ff18;stroke-width:1;stroke-linecap:round;stroke-linejoin:round;stroke-dasharray:none;stroke-dashoffset:0;stroke-opacity:1;paint-order:fill markers stroke;stop-color:#000000"
       d="m 254.16858,72.652137 c -1.90638,-1.532821 -2.18804,-2.040527 -1.70119,-3.066491 0.18692,-0.393913 3.09586,-2.865384 3.22297,-2.738277 0.0306,0.03064 0.0403,1.622226 0.0215,3.536873 l -0.0343,3.481176 z"
       id="path4366" /></g><g
     aria-label="Drop     Mark"
     id="text1979-5-1-6"
     style="font-size:86.0283px;line-height:1.25;letter-spacing:0px;fill:#2f4cdd;stroke:#6f83e4;stroke-width:2;stroke-linecap:round;stroke-linejoin:round;stroke-opacity:1"><path
       d="m 47.983461,56.488607 15.915235,0.08603 q 12.474103,0 21.937216,9.032971 9.463113,8.946943 9.463113,22.109273 0,13.076301 -9.291056,22.453381 -9.205028,9.37709 -22.367358,9.37709 H 47.897433 q -5.247726,0 -6.538151,-2.15071 -1.032339,-1.80659 -1.032339,-5.50581 V 64.059097 q 0,-2.064679 0.08603,-3.01099 0.172057,-0.946312 0.860283,-2.236736 1.204396,-2.322764 6.710207,-2.322764 z m 15.915235,47.831733 q 6.194038,0 11.183679,-4.5595 4.989641,-4.645528 4.989641,-11.61382 0,-6.968292 -4.903613,-11.61382 -4.817584,-4.731556 -11.355735,-4.731556 h -8.258717 v 32.518696 z"
       style="font-family:'Fredoka One';-inkscape-font-specification:'Fredoka One';stroke:#6f83e4;stroke-opacity:1"
       id="path1513" /><path
       d="m 131.68903,74.812634 q 1.63454,0.51617 2.66688,1.806594 1.11837,1.204397 1.11837,3.957302 0,2.752906 -1.63454,6.021981 -1.63454,3.269075 -4.73155,3.269075 -1.54851,0 -3.011,-0.688226 -1.37645,-0.688227 -3.69921,-0.688227 -2.32277,0 -4.38745,1.634538 -1.97865,1.634538 -1.97865,3.957302 v 18.065947 q 0,1.97865 -0.17205,3.01099 -0.086,0.94631 -0.77426,2.23673 -1.29042,2.23674 -6.7102,2.23674 -4.12936,0 -5.93596,-1.46248 -1.37645,-1.2044 -1.54851,-3.69922 0,-0.86028 0,-2.49482 V 81.780926 q 0,-1.978651 0.086,-2.924962 0.17206,-1.032339 0.77426,-2.236736 1.20439,-2.322764 6.7102,-2.322764 5.1617,0 6.45213,1.978651 0.94631,1.376453 0.94631,2.838934 0.43014,-0.602198 1.20439,-1.462481 0.86029,-0.860283 3.52716,-2.322764 2.66688,-1.462481 4.64553,-1.462481 2.06468,0 3.44113,0.258085 1.37646,0.172056 3.01099,0.688226 z"
       style="font-family:'Fredoka One';-inkscape-font-specification:'Fredoka One';stroke:#6f83e4;stroke-opacity:1"
       id="path1515" /><path
       d="m 136.33457,97.007935 q 0,-10.323396 7.22638,-17.033603 7.22637,-6.710207 16.51743,-6.710207 9.29105,0 16.4314,6.710207 7.14035,6.624179 7.14035,16.947575 0,7.140353 -3.69921,12.732183 -3.69922,5.50582 -9.03298,8.17269 -5.24772,2.58085 -10.92559,2.58085 -5.67787,0 -11.01162,-2.7529 -5.33376,-2.83894 -9.03297,-8.25872 -3.61319,-5.50581 -3.61319,-12.388075 z m 17.97991,6.194035 q 2.75291,2.06468 5.59184,2.06468 2.83894,0 5.67787,-2.15071 2.83893,-2.1507 2.83893,-6.36609 0,-4.215387 -2.66687,-6.280066 -2.66688,-2.064679 -5.7639,-2.064679 -3.09702,0 -5.7639,2.150708 -2.66687,2.150707 -2.66687,6.366094 0,4.129353 2.7529,6.280063 z"
       style="font-family:'Fredoka One';-inkscape-font-specification:'Fredoka One';stroke:#6f83e4;stroke-opacity:1"
       id="path1517" /><path
       d="M 189.242,131.93542 V 81.694898 q 0,-1.978651 0.086,-2.924962 0.17205,-0.946311 0.77425,-2.150708 1.2044,-2.322764 5.7639,-2.322764 4.5595,0 6.10801,1.204396 1.63453,1.118368 1.89262,3.355104 3.26907,-4.473471 10.23737,-4.473471 7.05432,0 13.33438,6.624179 6.28007,6.624178 6.28007,15.399065 0,8.774883 -6.28007,15.399063 -6.19404,6.62418 -13.24836,6.62418 -7.05432,0 -10.23736,-3.9573 v 17.37772 q 0,1.97865 -0.17206,2.92496 -0.086,0.94631 -0.77426,2.1507 -0.60219,1.29043 -2.1507,1.8066 -1.54851,0.51617 -4.21539,0.51617 -2.66688,0 -4.30141,-0.51617 -1.54851,-0.51617 -2.23674,-1.72057 -0.6022,-1.20439 -0.77425,-2.1507 -0.086,-0.94632 -0.086,-2.92497 z m 17.0336,-40.519324 q -1.97865,2.322764 -1.97865,5.075669 0,2.752906 1.97865,5.075665 2.06468,2.23674 5.1617,2.23674 3.18304,0 5.33375,-2.23674 2.23674,-2.236731 2.23674,-5.075665 0,-2.838934 -2.06468,-5.075669 -2.06468,-2.322765 -5.41978,-2.322765 -3.26908,0 -5.24773,2.322765 z"
       style="font-family:'Fredoka One';-inkscape-font-specification:'Fredoka One';stroke:#6f83e4;stroke-opacity:1"
       id="path1519" /><path
       d="m 415.1525,58.983427 q 0.68822,1.290425 0.77425,2.322764 0.17206,1.03234 0.17206,3.010991 v 47.745708 q 0,5.93595 -3.26908,6.96829 -1.63454,0.51617 -4.12936,0.51617 -2.49482,0 -3.9573,-0.43014 -1.46248,-0.43014 -2.23673,-1.03234 -0.77426,-0.6022 -1.2044,-1.72057 -0.43014,-1.46248 -0.43014,-4.47347 V 83.071351 q -2.15071,2.666877 -6.28007,8.516801 -4.12936,5.763896 -5.24772,7.226377 -1.11837,1.462481 -1.54851,2.064681 -0.43014,0.51617 -2.15071,1.54851 -1.63454,0.94631 -3.61319,0.94631 -1.89262,0 -3.52716,-0.86028 -1.54851,-0.94632 -2.23673,-1.8066 l -0.68823,-0.94631 q -1.72057,-2.150707 -6.79624,-9.118999 -5.07567,-7.054321 -5.50581,-7.57049 v 28.991539 q 0,1.97865 -0.17205,3.01099 -0.086,0.94631 -0.77426,2.1507 -1.29042,2.32277 -6.71021,2.32277 -5.24772,0 -6.53815,-2.32277 -0.68822,-1.20439 -0.86028,-2.23673 -0.086,-1.03234 -0.086,-3.09702 V 64.145125 q 0,-1.978651 0.086,-2.924962 0.17206,-1.032339 0.86028,-2.322764 1.29043,-2.236736 6.71021,-2.236736 2.32276,0 3.9573,0.602198 1.72057,0.51617 2.23674,1.118368 l 0.51617,0.51617 19.52842,25.636433 q 14.62481,-19.356367 19.52842,-25.550405 1.46249,-2.322764 6.88227,-2.322764 5.50581,0 6.71021,2.322764 z"
       style="font-family:'Fredoka One';-inkscape-font-specification:'Fredoka One';stroke:#6f83e4;stroke-opacity:1"
       id="path1521" /><path
       d="m 452.4028,79.114049 q 0.51617,-4.817585 6.79623,-4.817585 3.3551,0 4.98964,0.51617 1.63454,0.51617 2.23674,1.806594 0.68822,1.290425 0.77425,2.322764 0.17206,0.946312 0.17206,2.924963 v 30.109905 q 0,1.97865 -0.17206,3.01099 -0.086,0.94631 -0.68822,2.23673 -1.2044,2.23674 -5.93596,2.23674 -4.64552,0 -6.28006,-1.11837 -1.54851,-1.20439 -1.8066,-3.44113 -3.18304,4.5595 -10.66751,4.5595 -7.39843,0 -13.76452,-6.79624 -6.3661,-6.79623 -6.3661,-15.743173 0,-9.032972 6.3661,-15.743179 6.45212,-6.796235 14.10864,-6.796235 2.92496,0 5.33375,1.032339 2.40879,1.03234 3.35511,1.978651 0.94631,0.860283 1.54851,1.720566 z m -15.65715,17.893886 q 0,2.838934 2.23673,5.161695 2.23674,2.23674 5.41978,2.23674 3.18305,0 5.24773,-2.32277 2.15071,-2.32276 2.15071,-5.075665 0,-2.838934 -2.06468,-5.247726 -1.97865,-2.408793 -5.41978,-2.408793 -3.35511,0 -5.50582,2.408793 -2.06467,2.408792 -2.06467,5.247726 z"
       style="font-family:'Fredoka One';-inkscape-font-specification:'Fredoka One';stroke:#6f83e4;stroke-opacity:1"
       id="path1523" /><path
       d="m 505.0522,74.812634 q 1.63453,0.51617 2.66687,1.806594 1.11837,1.204397 1.11837,3.957302 0,2.752906 -1.63454,6.021981 -1.63453,3.269075 -4.73155,3.269075 -1.54851,0 -3.01099,-0.688226 -1.37645,-0.688227 -3.69922,-0.688227 -2.32276,0 -4.38744,1.634538 -1.97865,1.634538 -1.97865,3.957302 v 18.065947 q 0,1.97865 -0.17206,3.01099 -0.086,0.94631 -0.77425,2.23673 -1.29043,2.23674 -6.71021,2.23674 -4.12936,0 -5.93595,-1.46248 -1.37646,-1.2044 -1.54851,-3.69922 0,-0.86028 0,-2.49482 V 81.780926 q 0,-1.978651 0.086,-2.924962 0.17205,-1.032339 0.77425,-2.236736 1.2044,-2.322764 6.71021,-2.322764 5.16169,0 6.45212,1.978651 0.94631,1.376453 0.94631,2.838934 0.43014,-0.602198 1.2044,-1.462481 0.86028,-0.860283 3.52716,-2.322764 2.66687,-1.462481 4.64552,-1.462481 2.06468,0 3.44114,0.258085 1.37645,0.172056 3.01099,0.688226 z"
       style="font-family:'Fredoka One';-inkscape-font-specification:'Fredoka One';stroke:#6f83e4;stroke-opacity:1"
       id="path1525" /><path
       d="m 540.23781,96.921907 11.44176,9.463113 q 2.15071,1.80659 2.66688,2.7529 0.6022,0.94632 0.6022,1.8066 0,2.06468 -2.66688,5.59184 -2.92496,3.61319 -5.1617,3.61319 -1.89262,0 -5.24772,-2.49482 l -0.86028,-0.6022 q -1.97866,-1.63454 -6.10801,-5.67787 -4.12936,-4.12936 -6.28007,-5.84992 v 6.62418 q 0,1.97865 -0.17206,3.01099 -0.086,0.94631 -0.77425,2.23673 -1.11837,2.23674 -6.62418,2.23674 -5.41978,0 -6.62418,-2.32277 -0.6022,-1.29042 -0.77425,-2.23673 -0.086,-1.03234 -0.086,-3.01099 V 60.531937 q 0,-1.978651 0.086,-2.924962 0.17205,-1.03234 0.77425,-2.322764 1.2044,-2.322764 6.71021,-2.322764 4.12936,0 5.84992,1.462481 1.46248,1.204396 1.54851,3.785245 0.086,0.774254 0.086,2.408792 v 27.27097 q 1.54851,-1.290424 4.64553,-4.387443 3.18305,-3.097019 4.73156,-4.387443 l 1.03233,-0.688226 q 3.011,-2.322764 5.1617,-2.322764 2.15071,0 4.90362,3.52716 2.83893,3.441132 2.83893,5.419783 0,1.97865 -3.18305,4.645528 z"
       style="font-family:'Fredoka One';-inkscape-font-specification:'Fredoka One';stroke:#6f83e4;stroke-opacity:1"
       id="path1527" /></g><path
     d="m 298.24827,66.789741 h -23.88549 c -0.82439,0 -1.49284,0.668453 -1.49284,1.492846 0,0.824389 0.66845,1.492841 1.49284,1.492841 h 23.88549 c 0.82439,0 1.49285,-0.668452 1.49285,-1.492841 0,-0.824393 -0.66846,-1.492846 -1.49285,-1.492846 z"
     id="path486-8-8-1-4"
     style="stroke-width:0.170611;fill:#0080be;fill-opacity:1" /><path
     d="m 274.36278,75.746802 h 4.47853 c 0.82439,0 1.49284,-0.668452 1.49284,-1.492841 0,-0.824394 -0.66845,-1.492846 -1.49284,-1.492846 h -4.47853 c -0.82439,0 -1.49284,0.668452 -1.49284,1.492846 0,0.824389 0.66845,1.492841 1.49284,1.492841 z"
     id="path488-5-1-4-6"
     style="stroke-width:0.170611;fill:#0080be;fill-opacity:1" /><path
     d="m 298.24827,72.761115 h -13.43558 c -0.8244,0 -1.49285,0.668452 -1.49285,1.492846 0,0.824389 0.66845,1.492841 1.49285,1.492841 h 13.43558 c 0.82439,0 1.49285,-0.668452 1.49285,-1.492841 0,-0.824394 -0.66846,-1.492846 -1.49285,-1.492846 z"
     id="path490-4-7-5-1"
     style="stroke-width:0.170611;fill:#0080be;fill-opacity:1" /><path
     d="m 315.40668,66.832935 c -0.2799,-0.282567 -0.66178,-0.441848 -1.05965,-0.441848 -0.39786,0 -0.77974,0.159279 -1.05964,0.441848 l -4.91171,4.926383 -1.92603,-1.940697 c -0.58514,-0.585808 -1.53416,-0.585808 -2.11932,0 -0.58581,0.585143 -0.58581,1.534164 0,2.119325 l 2.98568,2.985687 c 0.27991,0.282564 0.66179,0.441848 1.05965,0.441848 0.39787,0 0.77974,-0.159281 1.05965,-0.441848 l 5.97137,-5.971373 c 0.28257,-0.279903 0.44185,-0.661784 0.44185,-1.059645 0,-0.397866 -0.15928,-0.779744 -0.44185,-1.059647 z"
     id="path492-3-5-0-7"
     style="stroke-width:0.170611;fill:#0080be;fill-opacity:1" /><path
     d="m 298.24827,80.734477 h -23.88549 c -0.82439,0 -1.49284,0.66845 -1.49284,1.492841 0,0.824391 0.66845,1.492846 1.49284,1.492846 h 23.88549 c 0.82439,0 1.49285,-0.668455 1.49285,-1.492846 0,-0.824391 -0.66846,-1.492841 -1.49285,-1.492841 z"
     id="path494-9-3-4-3"
     style="stroke-width:0.170611;fill:#0080be;fill-opacity:1" /><path
     d="M 298.43686,94.326207 H 281.3796 c -0.58872,0 -1.06608,0.66845 -1.06608,1.492841 0,0.824391 0.47736,1.492846 1.06608,1.492846 h 17.05726 c 0.58872,0 1.06608,-0.668455 1.06608,-1.492846 0,-0.824391 -0.47736,-1.492841 -1.06608,-1.492841 z"
     id="path494-9-3-5-0-8"
     style="stroke-width:0.144176;fill:#0080be;fill-opacity:1" /><path
     d="m 274.36278,89.691527 h 4.47853 c 0.82439,0 1.49284,-0.66845 1.49284,-1.492841 0,-0.824391 -0.66845,-1.492835 -1.49284,-1.492835 h -4.47853 c -0.82439,0 -1.49284,0.668444 -1.49284,1.492835 0,0.824391 0.66845,1.492841 1.49284,1.492841 z"
     id="path496-6-8-3-9"
     style="stroke-width:0.170611;fill:#0080be;fill-opacity:1" /><path
     d="m 298.24827,86.705851 h -13.43558 c -0.8244,0 -1.49285,0.668444 -1.49285,1.492835 0,0.824391 0.66845,1.492841 1.49285,1.492841 h 13.43558 c 0.82439,0 1.49285,-0.66845 1.49285,-1.492841 0,-0.824391 -0.66846,-1.492835 -1.49285,-1.492835 z"
     id="path498-8-0-7-9"
     style="stroke-width:0.170611;fill:#0080be;fill-opacity:1" /><path
     d="m 315.40668,80.777665 c -0.2799,-0.282564 -0.66178,-0.441845 -1.05965,-0.441845 -0.39786,0 -0.77974,0.159281 -1.05964,0.441845 l -4.91171,4.926384 -1.92603,-1.940697 c -0.58514,-0.585809 -1.53416,-0.585809 -2.11932,0 -0.58581,0.585145 -0.58581,1.534169 0,2.119327 l 2.98568,2.985682 c 0.27991,0.282564 0.66179,0.441845 1.05965,0.441845 0.39787,0 0.77974,-0.159281 1.05965,-0.441845 l 5.97137,-5.971368 c 0.28257,-0.279906 0.44185,-0.661781 0.44185,-1.059647 0,-0.397864 -0.15928,-0.779742 -0.44185,-1.059645 z"
     id="path500-5-7-7-9"
     style="stroke-width:0.170611;fill:#0080be;fill-opacity:1" /><path
     d="m 266.85502,60.288211 c 0,0.489762 0.19459,0.959751 0.54089,1.306043 0.3463,0.346295 0.81628,0.540889 1.30604,0.540889 h 36.93865 c 1.01993,0 1.84694,-0.827003 1.84694,-1.846932 0,-1.019931 -0.82701,-1.846933 -1.84694,-1.846933 h -35.09171 v -3.693866 h 44.32638 v 3.693866 h -1.84694 c -1.01993,0 -1.84693,0.827002 -1.84693,1.846933 0,1.019929 0.827,1.846932 1.84693,1.846932 h 3.69387 c 0.48976,0 0.95975,-0.194588 1.30604,-0.540889 0.3463,-0.346297 0.54089,-0.816281 0.54089,-1.306043 v -7.38773 c 0,-0.489764 -0.19459,-0.959753 -0.54089,-1.306045 -0.34629,-0.346295 -0.81628,-0.540889 -1.30604,-0.540889 h -48.02025 c -1.01993,0 -1.84693,0.827003 -1.84693,1.846934 z"
     id="path510-9-7-8-9"
     style="stroke-width:0.211078;fill:#0080be;fill-opacity:1" /><path
     d="m 280.37227,41.96807 7.8964,-6.31816 c 2.07122,-1.655522 5.01452,-1.655522 7.08396,0 l 7.89835,6.31816 h 18.80058 c 3.13186,0 5.67014,2.538281 5.67014,5.670144 V 61.5453 l 5.43151,4.345597 c 1.34603,1.077069 2.12825,2.705956 2.12825,4.427898 v 45.304455 c 0.008,0.64423 -0.0962,1.29856 -0.31895,1.93336 -0.798,2.27178 -2.94329,3.79317 -5.35116,3.79317 H 254.0105 c -2.40787,0 -4.55313,-1.52132 -5.35116,-3.79317 -0.21897,-0.62524 -0.32275,-1.27008 -0.31895,-1.90679 V 70.317823 c 0,-1.721943 0.78217,-3.350895 2.12824,-4.427896 l 5.43152,-4.3456 V 47.637244 c 0,-3.131864 2.53828,-5.670144 5.67014,-5.670144 z m 26.94128,53.453267 -11.96044,9.567803 c -2.06928,1.65552 -5.01257,1.65552 -7.08395,0 l -11.9585,-9.567803 -23.4825,18.784383 c -0.62587,0.50056 -0.86761,1.3435 -0.60118,2.10168 0.26452,0.75813 0.97899,1.26439 1.78269,1.26439 h 75.60085 c 0.80369,0 1.51816,-0.50626 1.78464,-1.26439 0.0715,-0.2044 0.10568,-0.41577 0.10568,-0.62587 v -0.0171 c -0.006,-0.55752 -0.25692,-1.09606 -0.70876,-1.45867 z M 252.12036,109.9314 273.28458,93.000346 252.12036,76.069295 Z m 58.21943,-16.931054 21.1626,16.931054 V 76.069295 Z m 13.60268,-15.72331 V 47.638378 c 0,-1.042901 -0.84673,-1.889617 -1.88962,-1.889617 h -60.48262 c -1.04291,0 -1.88962,0.846732 -1.88962,1.889617 v 29.635417 l 30.94927,24.762335 c 0.69168,0.55182 1.67318,0.55182 2.36299,0 z m 3.78053,-10.890405 3.07111,2.457279 c 0.44804,0.358806 0.70877,0.901148 0.70877,1.475759 0,0.574614 -0.26073,1.116938 -0.70877,1.476395 l -3.07111,2.457278 z m -71.82292,0.0018 V 74.2513 l -3.07111,-2.455333 c -0.44804,-0.359456 -0.70877,-0.90178 -0.70877,-1.476394 0,-0.574611 0.26073,-1.116938 0.70877,-1.47576 z m 41.29972,-24.41886 h -10.777 l 4.20708,-3.36596 c 0.69168,-0.55182 1.67318,-0.55182 2.36299,0 z"
     fill-rule="evenodd"
     id="path1422-7-8"
     style="stroke-width:0.162004;fill:#f87818;fill-opacity:1;stroke:none;stroke-opacity:1" /><g
     aria-label="the"
     id="text1979-5-1-2-6"
     style="font-size:33.9281px;line-height:1.25;letter-spacing:0px;fill:#2f4cdd;stroke:#6f83e4;stroke-width:1.4;stroke-opacity:1"><path
       d="m 358.67485,37.071835 -2.20532,-0.135712 v 4.682078 q 0,0.916059 0.27142,1.323196 0.30535,0.407137 1.0857,0.407137 0.81427,0 1.22141,0.06786 0.44107,0.03393 0.91606,0.305353 0.78035,0.441065 0.78035,2.273183 0,2.13747 -0.94999,2.612464 -0.50892,0.237496 -0.91606,0.305352 -0.37321,0.03393 -1.11963,0.03393 -3.52852,0 -5.36064,-1.594621 -1.83211,-1.594621 -1.83211,-5.394568 v -5.021359 q -0.64464,0.101784 -1.39106,0.101784 -0.74641,0 -1.25534,-0.576777 -0.47499,-0.576778 -0.47499,-1.96783 0,-1.391052 0.16964,-2.001758 0.16964,-0.644634 0.475,-0.916059 0.54285,-0.441065 1.35712,-0.441065 l 1.11963,0.135712 v -3.494594 q 0,-0.780347 0.0339,-1.153556 0.0679,-0.373209 0.33929,-0.814274 0.44106,-0.848203 2.61246,-0.848203 2.30711,0 2.74818,1.25534 0.16964,0.54285 0.16964,1.730333 v 3.324954 q 1.49283,-0.135712 2.23925,-0.135712 0.78035,0 1.15356,0.06786 0.40713,0.03393 0.91606,0.305353 0.88213,0.441065 0.88213,2.612464 0,2.13747 -0.91606,2.612463 -0.50892,0.237497 -0.91606,0.305353 -0.37321,0.03393 -1.15356,0.03393 z"
       style="font-family:'Fredoka One';-inkscape-font-specification:'Fredoka One';stroke:#6f83e4;stroke-opacity:1"
       id="path1506" /><path
       d="m 373.43356,31.134418 q 3.39281,0 5.63206,2.578535 2.27318,2.578536 2.27318,6.310627 v 5.971346 q 0,0.780346 -0.0678,1.187483 -0.0339,0.373209 -0.30536,0.882131 -0.44106,0.882131 -2.61246,0.882131 -2.06961,0 -2.57853,-0.882131 -0.27143,-0.508922 -0.33929,-0.916059 -0.0339,-0.407137 -0.0339,-1.221411 v -5.937418 q 0,-1.391052 -0.78035,-2.171398 -0.78035,-0.780347 -2.00176,-0.780347 -1.18748,0 -2.10354,0.746418 -0.91606,0.712491 -1.05177,1.628549 v 6.582052 q 0,0.780346 -0.0679,1.187483 -0.0339,0.373209 -0.30535,0.882131 -0.44107,0.882131 -2.61246,0.882131 -2.13747,0 -2.61247,-0.916059 -0.23749,-0.508922 -0.30535,-0.882131 -0.0339,-0.373209 -0.0339,-1.187483 V 25.671994 q 0,-0.780347 0.0339,-1.153556 0.0679,-0.407137 0.30535,-0.882131 0.475,-0.916058 2.64639,-0.916058 2.13747,0 2.57854,0.916058 0.27142,0.508922 0.30535,0.916059 0.0679,0.373209 0.0679,1.153556 v 7.49811 q 1.6964,-2.069614 3.96959,-2.069614 z"
       style="font-family:'Fredoka One';-inkscape-font-specification:'Fredoka One';stroke:#6f83e4;stroke-opacity:1"
       id="path1508" /><path
       d="m 401.28851,37.88611 q 0,2.069614 -1.05177,3.087457 -1.01784,0.983915 -2.27318,0.983915 h -8.04096 q 0,0.949987 1.11962,1.594621 1.11963,0.644633 2.23926,0.644633 1.96783,0 3.08746,-0.407137 l 0.37321,-0.135712 q 0.81427,-0.373209 1.35712,-0.373209 1.0857,0 1.86604,1.526764 0.44107,0.916059 0.44107,1.560693 0,3.019601 -7.22669,3.019601 -2.51067,0 -4.4785,-0.848203 -1.93391,-0.88213 -3.01961,-2.307111 -2.13747,-2.748176 -2.13747,-6.140986 0,-4.27494 2.74818,-6.819548 2.7821,-2.578536 6.92133,-2.578536 4.71601,0 6.92134,3.324954 1.15355,1.764262 1.15355,3.867804 z m -7.15883,0.983915 q 1.28927,0 1.28927,-1.0857 0,-0.780346 -0.61071,-1.255339 -0.57677,-0.474994 -1.6964,-0.474994 -1.0857,0 -2.1714,0.916059 -1.0857,0.882131 -1.0857,1.899974 z"
       style="font-family:'Fredoka One';-inkscape-font-specification:'Fredoka One';stroke:#6f83e4;stroke-opacity:1"
       id="path1510" /></g><sodipodi:namedview
     id="namedview118"
     pagecolor="#ffffff"
     bordercolor="#666666"
     borderopacity="1.0"
     inkscape:showpageshadow="2"
     inkscape:pageopacity="0.0"
     inkscape:pagecheckerboard="0"
     inkscape:deskcolor="#d1d1d1"
     inkscape:document-units="pt"
     showgrid="false"
     inkscape:zoom="1.0405299"
     inkscape:cx="409.88732"
     inkscape:cy="195.09291"
     inkscape:window-width="1920"
     inkscape:window-height="1011"
     inkscape:window-x="0"
     inkscape:window-y="0"
     inkscape:window-maximized="1"
     inkscape:current-layer="svg116" /><defs
     id="defs38"><linearGradient
       id="linearGradient3090"><stop
         style="stop-color:#2f4cdd;stop-opacity:1;"
         offset="0"
         id="stop3094" /><stop
         style="stop-color:#2f4cdd;stop-opacity:0.50732213;"
         offset="1"
         id="stop3096" /></linearGradient><linearGradient
       id="linearGradient3090-1"><stop
         style="stop-color:#2f4cdd;stop-opacity:1;"
         offset="0"
         id="stop3086" /><stop
         style="stop-color:#2f4cdd;stop-opacity:0;"
         offset="1"
         id="stop3088" /></linearGradient><linearGradient
       id="linearGradient3082"
       inkscape:swatch="solid"><stop
         style="stop-color:#2f4cdd;stop-opacity:1;"
         offset="0"
         id="stop3080" /></linearGradient><symbol
       id="l"
       overflow="visible"><path
         d="m 29.312,-1.75 c -1.5117,0.78125 -3.0898,1.3711 -4.7344,1.7656 -1.6367,0.40625 -3.3398,0.60938 -5.1094,0.60938 -5.3125,0 -9.5273,-1.4844 -12.641,-4.4531 -3.1055,-2.9688 -4.6562,-7 -4.6562,-12.094 0,-5.094 1.5508,-9.125 4.6562,-12.094 3.1133,-2.9688 7.3281,-4.4531 12.641,-4.4531 1.7695,0 3.4727,0.19922 5.1094,0.59375 1.6445,0.39844 3.2227,0.99219 4.7344,1.7812 v 6.5938 c -1.5312,-1.0391 -3.0391,-1.8008 -4.5156,-2.2812 -1.4805,-0.48828 -3.0391,-0.73438 -4.6719,-0.73438 -2.9375,0 -5.2461,0.94531 -6.9219,2.8281 -1.6797,1.875 -2.5156,4.4648 -2.5156,7.7656 0,3.293 0.83594,5.8828 2.5156,7.7656 1.6758,1.875 3.9844,2.8125 6.9219,2.8125 1.6328,0 3.1914,-0.23828 4.6719,-0.71875 1.4766,-0.48828 2.9844,-1.2539 4.5156,-2.2969 z"
         id="path2" /></symbol><symbol
       id="d"
       overflow="visible"><path
         d="m 21.453,-17.406 c -0.67969,-0.3125 -1.3516,-0.53906 -2.0156,-0.6875 -0.65625,-0.15625 -1.3203,-0.23438 -1.9844,-0.23438 -1.9688,0 -3.4844,0.63281 -4.5469,1.8906 -1.0547,1.2617 -1.5781,3.0703 -1.5781,5.4219 V 6.2e-4 H 3.6718 v -23.922 h 7.6562 v 3.9219 c 0.97656,-1.5625 2.1016,-2.7031 3.375,-3.4219 1.2812,-0.71875 2.8125,-1.0781 4.5938,-1.0781 0.25,0 0.52344,0.01172 0.82812,0.03125 0.30078,0.02344 0.73438,0.07031 1.2969,0.14062 z"
         id="path5" /></symbol><symbol
       id="c"
       overflow="visible"><path
         d="m 27.562,-12.031 v 2.1875 H 9.671 c 0.1875,1.793 0.83203,3.1367 1.9375,4.0312 1.1133,0.89844 2.6719,1.3438 4.6719,1.3438 1.6016,0 3.25,-0.23438 4.9375,-0.70312 1.6875,-0.47656 3.4219,-1.2031 5.2031,-2.1719 v 5.8906 c -1.8047,0.6875 -3.6094,1.2031 -5.4219,1.5469 -1.8125,0.35156 -3.6211,0.53125 -5.4219,0.53125 -4.3359,0 -7.7031,-1.0977 -10.109,-3.2969 -2.3984,-2.207 -3.5938,-5.2969 -3.5938,-9.2656 0,-3.9062 1.1758,-6.9727 3.5312,-9.2031 2.3633,-2.2383 5.6094,-3.3594 9.7344,-3.3594 3.7578,0 6.7695,1.1367 9.0312,3.4062 2.2578,2.2617 3.3906,5.2812 3.3906,9.0625 z m -7.8594,-2.5312 c 0,-1.457 -0.42969,-2.6289 -1.2812,-3.5156 -0.84375,-0.89453 -1.9492,-1.3438 -3.3125,-1.3438 -1.4922,0 -2.6992,0.41797 -3.625,1.25 -0.91797,0.83594 -1.4922,2.0391 -1.7188,3.6094 z"
         id="path8" /></symbol><symbol
       id="a"
       overflow="visible"><path
         d="m 14.391,-10.766 c -1.5938,0 -2.793,0.27344 -3.5938,0.8125 -0.80469,0.54297 -1.2031,1.3398 -1.2031,2.3906 0,0.96875 0.32031,1.7305 0.96875,2.2812 0.64453,0.54297 1.5469,0.8125 2.7031,0.8125 1.4375,0 2.6445,-0.51562 3.625,-1.5469 0.98828,-1.0312 1.4844,-2.3203 1.4844,-3.875 v -0.875 z m 11.688,-2.8906 V -6e-4 h -7.7031 v -3.5469 c -1.0312,1.4492 -2.1875,2.5078 -3.4688,3.1719 -1.2813,0.6641 -2.8398,1 -4.6719,1 -2.4805,0 -4.4961,-0.72266 -6.0469,-2.1719 -1.543,-1.4453 -2.3125,-3.3203 -2.3125,-5.625 0,-2.8125 0.96094,-4.8672 2.8906,-6.1719 1.9375,-1.3125 4.9688,-1.9688 9.0938,-1.9688 h 4.5156 v -0.60938 c 0,-1.207 -0.48047,-2.0938 -1.4375,-2.6562 -0.94922,-0.5625 -2.4375,-0.84375 -4.4688,-0.84375 -1.6367,0 -3.1562,0.16797 -4.5625,0.5 -1.4062,0.32422 -2.7188,0.8125 -3.9375,1.4688 v -5.8281 c 1.6445,-0.40625 3.2891,-0.70703 4.9375,-0.90625 1.6562,-0.20703 3.3047,-0.3125 4.9531,-0.3125 4.3203,0 7.4375,0.85547 9.3438,2.5625 1.9141,1.6992 2.875,4.4609 2.875,8.2812 z"
         id="path11" /></symbol><symbol
       id="b"
       overflow="visible"><path
         d="m 12.031,-30.719 v 6.7969 h 7.875 v 5.4688 h -7.875 v 10.141 c 0,1.1172 0.21875,1.8711 0.65625,2.2656 0.4375,0.38672 1.3125,0.57812 2.625,0.57812 h 3.9375 v 5.4688 h -6.5625 c -3.0234,0 -5.1641,-0.62891 -6.4219,-1.8906 -1.2617,-1.2578 -1.8906,-3.3984 -1.8906,-6.4219 v -10.141 h -3.7969 v -5.4688 h 3.7969 v -6.7969 z"
         id="path14" /></symbol><symbol
       id="i"
       overflow="visible"><path
         d="m 19.953,-20.422 v -12.812 h 7.6875 V 0 H 19.953 v -3.4531 c -1.0547,1.4062 -2.2148,2.4375 -3.4844,3.0938 -1.2734,0.65625 -2.7422,0.98438 -4.4062,0.98438 -2.9492,0 -5.3711,-1.1719 -7.2656,-3.5156 -1.8867,-2.3438 -2.8281,-5.3594 -2.8281,-9.0469 0,-3.6875 0.94141,-6.7031 2.8281,-9.0469 1.8945,-2.3438 4.3164,-3.5156 7.2656,-3.5156 1.6562,0 3.1172,0.33594 4.3906,1 1.2812,0.65625 2.4453,1.6836 3.5,3.0781 z m -5.0469,15.484 c 1.6445,0 2.8945,-0.59766 3.75,-1.7969 0.86328,-1.1953 1.2969,-2.9297 1.2969,-5.2031 0,-2.2812 -0.43359,-4.0195 -1.2969,-5.2188 -0.85547,-1.1953 -2.1055,-1.7969 -3.75,-1.7969 -1.625,0 -2.8711,0.60156 -3.7344,1.7969 -0.85547,1.1992 -1.2812,2.9375 -1.2812,5.2188 0,2.2734 0.42578,4.0078 1.2812,5.2031 0.86328,1.1992 2.1094,1.7969 3.7344,1.7969 z"
         id="path17" /></symbol><symbol
       id="h"
       overflow="visible"><path
         d="m 16.406,-4.9375 c 1.6328,0 2.8828,-0.59766 3.75,-1.7969 0.86328,-1.1953 1.2969,-2.9297 1.2969,-5.2031 0,-2.2812 -0.43359,-4.0195 -1.2969,-5.2188 -0.86719,-1.1953 -2.1172,-1.7969 -3.75,-1.7969 -1.6367,0 -2.8906,0.60547 -3.7656,1.8125 -0.875,1.1992 -1.3125,2.9336 -1.3125,5.2031 0,2.2617 0.4375,3.9961 1.3125,5.2031 0.875,1.1992 2.1289,1.7969 3.7656,1.7969 z m -5.0781,-15.484 c 1.0508,-1.3945 2.2188,-2.4219 3.5,-3.0781 1.2812,-0.66406 2.7539,-1 4.4219,-1 2.9453,0 5.3672,1.1719 7.2656,3.5156 1.8945,2.3438 2.8438,5.3594 2.8438,9.0469 0,3.6875 -0.94922,6.7031 -2.8438,9.0469 -1.8984,2.3438 -4.3203,3.5156 -7.2656,3.5156 -1.668,0 -3.1406,-0.33594 -4.4219,-1 -1.2813,-0.66406 -2.4492,-1.6914 -3.5,-3.0781 V 4e-4 H 3.6717 v -33.234 h 7.6562 z"
         id="path20" /></symbol><symbol
       id="g"
       overflow="visible"><path
         d="m 0.53125,-23.922 h 7.6562 l 6.4219,16.234 5.4688,-16.234 h 7.6562 l -10.062,26.188 c -1.0117,2.6641 -2.1953,4.5234 -3.5469,5.5781 -1.3438,1.0625 -3.1211,1.5938 -5.3281,1.5938 H 4.37545 V 4.4223 h 2.3906 c 1.3008,0 2.2422,-0.21094 2.8281,-0.625 0.59375,-0.40625 1.0547,-1.1484 1.3906,-2.2188 l 0.20312,-0.65625 z"
         id="path23" /></symbol><symbol
       id="f"
       overflow="visible"><path
         d="m 3.6719,-33.234 h 7.6562 V 0 H 3.6719 Z"
         id="path26" /></symbol><symbol
       id="e"
       overflow="visible"><path
         d="m 22.359,-23.172 v 5.7969 c -1.6367,-0.67578 -3.2148,-1.1875 -4.7344,-1.5312 -1.5234,-0.34375 -2.9609,-0.51562 -4.3125,-0.51562 -1.4609,0 -2.543,0.18359 -3.25,0.54688 -0.69922,0.36719 -1.0469,0.92188 -1.0469,1.6719 0,0.61719 0.26562,1.0898 0.79688,1.4219 0.53125,0.32422 1.4883,0.5625 2.875,0.71875 l 1.3438,0.1875 c 3.9141,0.5 6.5508,1.3242 7.9062,2.4688 1.3516,1.1367 2.0312,2.9219 2.0312,5.3594 0,2.5547 -0.94531,4.4688 -2.8281,5.75 -1.875,1.2812 -4.6797,1.9219 -8.4062,1.9219 -1.5859,0 -3.2188,-0.125 -4.9062,-0.375 -1.6874,-0.25 -3.4219,-0.625 -5.2031,-1.125 v -5.8125 c 1.5195,0.74219 3.082,1.2969 4.6875,1.6719 1.6016,0.36719 3.2344,0.54688 4.8906,0.54688 1.4883,0 2.6094,-0.20312 3.3594,-0.60938 0.75781,-0.41406 1.1406,-1.0312 1.1406,-1.8438 0,-0.6875 -0.26172,-1.1953 -0.78125,-1.5312 -0.52344,-0.33203 -1.5586,-0.59375 -3.1094,-0.78125 l -1.3438,-0.17188 c -3.4062,-0.42578 -5.793,-1.2109 -7.1562,-2.3594 -1.3672,-1.1562 -2.0469,-2.9102 -2.0469,-5.2656 0,-2.5312 0.86719,-4.4062 2.6094,-5.625 1.7383,-1.2266 4.3984,-1.8438 7.9844,-1.8438 1.4062,0 2.8828,0.10938 4.4375,0.32812 1.5508,0.21094 3.2383,0.54297 5.0625,1 z"
         id="path29" /></symbol><symbol
       id="k"
       overflow="visible"><path
         d="M 11.328,-3.4531 V 9.0939 H 3.6718 v -33.016 h 7.6562 v 3.5 c 1.0508,-1.3945 2.2188,-2.4219 3.5,-3.0781 1.2812,-0.66406 2.7539,-1 4.4219,-1 2.9453,0 5.3672,1.1719 7.2656,3.5156 1.8945,2.3438 2.8438,5.3594 2.8438,9.0469 0,3.6875 -0.94922,6.7031 -2.8438,9.0469 -1.8984,2.3438 -4.3203,3.5156 -7.2656,3.5156 -1.668,0 -3.1406,-0.33594 -4.4219,-1 -1.2813,-0.66406 -2.4492,-1.6914 -3.5,-3.0781 z m 5.0781,-15.5 c -1.6367,0 -2.8906,0.60547 -3.7656,1.8125 -0.875,1.1992 -1.3125,2.9336 -1.3125,5.2031 0,2.2617 0.4375,3.9961 1.3125,5.2031 0.875,1.1992 2.1289,1.7969 3.7656,1.7969 1.6328,0 2.8828,-0.59766 3.75,-1.7969 0.86328,-1.1953 1.2969,-2.9297 1.2969,-5.2031 0,-2.2812 -0.43359,-4.0195 -1.2969,-5.2188 -0.86719,-1.1953 -2.1172,-1.7969 -3.75,-1.7969 z"
         id="path32" /></symbol><symbol
       id="j"
       overflow="visible"><path
         d="m 3.6719,-33.234 h 7.6562 v 18.094 l 8.7969,-8.7812 h 8.8906 l -11.688,10.969 12.594,12.953 H 20.656 L 11.3279,-9.968 V 8e-4 H 3.6717 Z"
         id="path35" /></symbol><symbol
       id="n"
       overflow="visible"><path
         d="m 29.312,-1.75 c -1.5117,0.78125 -3.0898,1.3711 -4.7344,1.7656 -1.6367,0.40625 -3.3398,0.60938 -5.1094,0.60938 -5.3125,0 -9.5273,-1.4844 -12.641,-4.4531 -3.1055,-2.9688 -4.6562,-7 -4.6562,-12.094 0,-5.094 1.5508,-9.125 4.6562,-12.094 3.1133,-2.9688 7.3281,-4.4531 12.641,-4.4531 1.7695,0 3.4727,0.19922 5.1094,0.59375 1.6445,0.39844 3.2227,0.99219 4.7344,1.7812 v 6.5938 c -1.5312,-1.0391 -3.0391,-1.8008 -4.5156,-2.2812 -1.4805,-0.48828 -3.0391,-0.73438 -4.6719,-0.73438 -2.9375,0 -5.2461,0.94531 -6.9219,2.8281 -1.6797,1.875 -2.5156,4.4648 -2.5156,7.7656 0,3.293 0.83594,5.8828 2.5156,7.7656 1.6758,1.875 3.9844,2.8125 6.9219,2.8125 1.6328,0 3.1914,-0.23828 4.6719,-0.71875 1.4766,-0.48828 2.9844,-1.2539 4.5156,-2.2969 z"
         id="path438" /></symbol><symbol
       id="h-2"
       overflow="visible"><path
         d="m 21.453,-17.406 c -0.67969,-0.3125 -1.3516,-0.53906 -2.0156,-0.6875 -0.65625,-0.15625 -1.3203,-0.23438 -1.9844,-0.23438 -1.9688,0 -3.4844,0.63281 -4.5469,1.8906 -1.0547,1.2617 -1.5781,3.0703 -1.5781,5.4219 V 6.2e-4 H 3.6718 v -23.922 h 7.6562 v 3.9219 c 0.97656,-1.5625 2.1016,-2.7031 3.375,-3.4219 1.2812,-0.71875 2.8125,-1.0781 4.5938,-1.0781 0.25,0 0.52344,0.01172 0.82812,0.03125 0.30078,0.02344 0.73438,0.07031 1.2969,0.14062 z"
         id="path441" /></symbol><symbol
       id="a-2"
       overflow="visible"><path
         d="m 27.562,-12.031 v 2.1875 H 9.671 c 0.1875,1.793 0.83203,3.1367 1.9375,4.0312 1.1133,0.89844 2.6719,1.3438 4.6719,1.3438 1.6016,0 3.25,-0.23438 4.9375,-0.70312 1.6875,-0.47656 3.4219,-1.2031 5.2031,-2.1719 v 5.8906 c -1.8047,0.6875 -3.6094,1.2031 -5.4219,1.5469 -1.8125,0.35156 -3.6211,0.53125 -5.4219,0.53125 -4.3359,0 -7.7031,-1.0977 -10.109,-3.2969 -2.3984,-2.207 -3.5938,-5.2969 -3.5938,-9.2656 0,-3.9062 1.1758,-6.9727 3.5312,-9.2031 2.3633,-2.2383 5.6094,-3.3594 9.7344,-3.3594 3.7578,0 6.7695,1.1367 9.0312,3.4062 2.2578,2.2617 3.3906,5.2812 3.3906,9.0625 z m -7.8594,-2.5312 c 0,-1.457 -0.42969,-2.6289 -1.2812,-3.5156 -0.84375,-0.89453 -1.9492,-1.3438 -3.3125,-1.3438 -1.4922,0 -2.6992,0.41797 -3.625,1.25 -0.91797,0.83594 -1.4922,2.0391 -1.7188,3.6094 z"
         id="path444" /></symbol><symbol
       id="c-5"
       overflow="visible"><path
         d="m 14.391,-10.766 c -1.5938,0 -2.793,0.27344 -3.5938,0.8125 -0.80469,0.54297 -1.2031,1.3398 -1.2031,2.3906 0,0.96875 0.32031,1.7305 0.96875,2.2812 0.64453,0.54297 1.5469,0.8125 2.7031,0.8125 1.4375,0 2.6445,-0.51562 3.625,-1.5469 0.98828,-1.0312 1.4844,-2.3203 1.4844,-3.875 v -0.875 z m 11.688,-2.8906 V -6e-4 h -7.7031 v -3.5469 c -1.0312,1.4492 -2.1875,2.5078 -3.4688,3.1719 -1.2813,0.6641 -2.8398,1 -4.6719,1 -2.4805,0 -4.4961,-0.72266 -6.0469,-2.1719 -1.543,-1.4453 -2.3125,-3.3203 -2.3125,-5.625 0,-2.8125 0.96094,-4.8672 2.8906,-6.1719 1.9375,-1.3125 4.9688,-1.9688 9.0938,-1.9688 h 4.5156 v -0.60938 c 0,-1.207 -0.48047,-2.0938 -1.4375,-2.6562 -0.94922,-0.5625 -2.4375,-0.84375 -4.4688,-0.84375 -1.6367,0 -3.1562,0.16797 -4.5625,0.5 -1.4062,0.32422 -2.7188,0.8125 -3.9375,1.4688 v -5.8281 c 1.6445,-0.40625 3.2891,-0.70703 4.9375,-0.90625 1.6562,-0.20703 3.3047,-0.3125 4.9531,-0.3125 4.3203,0 7.4375,0.85547 9.3438,2.5625 1.9141,1.6992 2.875,4.4609 2.875,8.2812 z"
         id="path447" /></symbol><symbol
       id="b-6"
       overflow="visible"><path
         d="m 12.031,-30.719 v 6.7969 h 7.875 v 5.4688 h -7.875 v 10.141 c 0,1.1172 0.21875,1.8711 0.65625,2.2656 0.4375,0.38672 1.3125,0.57812 2.625,0.57812 h 3.9375 v 5.4688 h -6.5625 c -3.0234,0 -5.1641,-0.62891 -6.4219,-1.8906 -1.2617,-1.2578 -1.8906,-3.3984 -1.8906,-6.4219 v -10.141 h -3.7969 v -5.4688 h 3.7969 v -6.7969 z"
         id="path450" /></symbol><symbol
       id="g-2"
       overflow="visible"><path
         d="m 19.953,-20.422 v -12.812 h 7.6875 V 0 H 19.953 v -3.4531 c -1.0547,1.4062 -2.2148,2.4375 -3.4844,3.0938 -1.2734,0.65625 -2.7422,0.98438 -4.4062,0.98438 -2.9492,0 -5.3711,-1.1719 -7.2656,-3.5156 -1.8867,-2.3438 -2.8281,-5.3594 -2.8281,-9.0469 0,-3.6875 0.94141,-6.7031 2.8281,-9.0469 1.8945,-2.3438 4.3164,-3.5156 7.2656,-3.5156 1.6562,0 3.1172,0.33594 4.3906,1 1.2812,0.65625 2.4453,1.6836 3.5,3.0781 z m -5.0469,15.484 c 1.6445,0 2.8945,-0.59766 3.75,-1.7969 0.86328,-1.1953 1.2969,-2.9297 1.2969,-5.2031 0,-2.2812 -0.43359,-4.0195 -1.2969,-5.2188 -0.85547,-1.1953 -2.1055,-1.7969 -3.75,-1.7969 -1.625,0 -2.8711,0.60156 -3.7344,1.7969 -0.85547,1.1992 -1.2812,2.9375 -1.2812,5.2188 0,2.2734 0.42578,4.0078 1.2812,5.2031 0.86328,1.1992 2.1094,1.7969 3.7344,1.7969 z"
         id="path453" /></symbol><symbol
       id="f-1"
       overflow="visible"><path
         d="m 16.406,-4.9375 c 1.6328,0 2.8828,-0.59766 3.75,-1.7969 0.86328,-1.1953 1.2969,-2.9297 1.2969,-5.2031 0,-2.2812 -0.43359,-4.0195 -1.2969,-5.2188 -0.86719,-1.1953 -2.1172,-1.7969 -3.75,-1.7969 -1.6367,0 -2.8906,0.60547 -3.7656,1.8125 -0.875,1.1992 -1.3125,2.9336 -1.3125,5.2031 0,2.2617 0.4375,3.9961 1.3125,5.2031 0.875,1.1992 2.1289,1.7969 3.7656,1.7969 z m -5.0781,-15.484 c 1.0508,-1.3945 2.2188,-2.4219 3.5,-3.0781 1.2812,-0.66406 2.7539,-1 4.4219,-1 2.9453,0 5.3672,1.1719 7.2656,3.5156 1.8945,2.3438 2.8438,5.3594 2.8438,9.0469 0,3.6875 -0.94922,6.7031 -2.8438,9.0469 -1.8984,2.3438 -4.3203,3.5156 -7.2656,3.5156 -1.668,0 -3.1406,-0.33594 -4.4219,-1 -1.2813,-0.66406 -2.4492,-1.6914 -3.5,-3.0781 V 4e-4 H 3.6717 v -33.234 h 7.6562 z"
         id="path456" /></symbol><symbol
       id="e-8"
       overflow="visible"><path
         d="m 0.53125,-23.922 h 7.6562 l 6.4219,16.234 5.4688,-16.234 h 7.6562 l -10.062,26.188 c -1.0117,2.6641 -2.1953,4.5234 -3.5469,5.5781 -1.3438,1.0625 -3.1211,1.5938 -5.3281,1.5938 H 4.37545 V 4.4223 h 2.3906 c 1.3008,0 2.2422,-0.21094 2.8281,-0.625 0.59375,-0.40625 1.0547,-1.1484 1.3906,-2.2188 l 0.20312,-0.65625 z"
         id="path459" /></symbol><symbol
       id="d-1"
       overflow="visible"><path
         d="m 4.0156,-31.891 h 9.1875 l 11.594,21.875 V -31.891 H 32.594 V 0 H 23.4065 L 11.8125,-21.875 V 0 H 4.0156 Z"
         id="path462" /></symbol><symbol
       id="m"
       overflow="visible"><path
         d="M 11.328,-3.4531 V 9.0939 H 3.6718 v -33.016 h 7.6562 v 3.5 c 1.0508,-1.3945 2.2188,-2.4219 3.5,-3.0781 1.2812,-0.66406 2.7539,-1 4.4219,-1 2.9453,0 5.3672,1.1719 7.2656,3.5156 1.8945,2.3438 2.8438,5.3594 2.8438,9.0469 0,3.6875 -0.94922,6.7031 -2.8438,9.0469 -1.8984,2.3438 -4.3203,3.5156 -7.2656,3.5156 -1.668,0 -3.1406,-0.33594 -4.4219,-1 -1.2813,-0.66406 -2.4492,-1.6914 -3.5,-3.0781 z m 5.0781,-15.5 c -1.6367,0 -2.8906,0.60547 -3.7656,1.8125 -0.875,1.1992 -1.3125,2.9336 -1.3125,5.2031 0,2.2617 0.4375,3.9961 1.3125,5.2031 0.875,1.1992 2.1289,1.7969 3.7656,1.7969 1.6328,0 2.8828,-0.59766 3.75,-1.7969 0.86328,-1.1953 1.2969,-2.9297 1.2969,-5.2031 0,-2.2812 -0.43359,-4.0195 -1.2969,-5.2188 -0.86719,-1.1953 -2.1172,-1.7969 -3.75,-1.7969 z"
         id="path465" /></symbol><symbol
       id="l-3"
       overflow="visible"><path
         d="m 15.062,-19.031 c -1.6992,0 -2.9961,0.60938 -3.8906,1.8281 -0.88672,1.2188 -1.3281,2.9766 -1.3281,5.2656 0,2.293 0.44141,4.0469 1.3281,5.2656 0.89453,1.2188 2.1914,1.8281 3.8906,1.8281 1.6641,0 2.9375,-0.60938 3.8125,-1.8281 0.88281,-1.2188 1.3281,-2.9727 1.3281,-5.2656 0,-2.2891 -0.44531,-4.0469 -1.3281,-5.2656 -0.875,-1.2188 -2.1484,-1.8281 -3.8125,-1.8281 z m 0,-5.4688 c 4.1133,0 7.3281,1.1094 9.6406,3.3281 2.3125,2.2187 3.4688,5.2969 3.4688,9.2344 0,3.9297 -1.1562,7.0078 -3.4688,9.2344 -2.3125,2.2188 -5.5273,3.3281 -9.6406,3.3281 -4.1367,0 -7.3711,-1.1094 -9.7031,-3.3281 -2.3242,-2.2266 -3.4844,-5.3047 -3.4844,-9.2344 0,-3.9375 1.1602,-7.0156 3.4844,-9.2344 2.332,-2.2188 5.5664,-3.3281 9.7031,-3.3281 z"
         id="path468" /></symbol><symbol
       id="k-0"
       overflow="visible"><path
         d="m 3.6719,-33.234 h 7.6562 V 0 H 3.6719 Z"
         id="path471" /></symbol><symbol
       id="j-7"
       overflow="visible"><path
         d="m 26.219,-30.891 v 6.75 c -1.7617,-0.78125 -3.4766,-1.3672 -5.1406,-1.7656 -1.668,-0.40625 -3.2422,-0.60938 -4.7188,-0.60938 -1.9609,0 -3.4141,0.27344 -4.3594,0.8125 -0.9375,0.54297 -1.4062,1.3867 -1.4062,2.5312 0,0.85547 0.31641,1.5234 0.95312,2 0.63281,0.46875 1.7852,0.875 3.4531,1.2188 l 3.5,0.70312 c 3.5391,0.71875 6.0625,1.8047 7.5625,3.25 1.5,1.4492 2.25,3.5117 2.25,6.1875 0,3.5234 -1.0469,6.1406 -3.1406,7.8594 -2.0859,1.7188 -5.2734,2.5781 -9.5625,2.5781 -2.0234,0 -4.0547,-0.19531 -6.0938,-0.57812 -2.0312,-0.38281 -4.0625,-0.95703 -6.0938,-1.7188 v -6.9375 c 2.0312,1.0859 3.9922,1.9023 5.8906,2.4531 1.9062,0.54297 3.7422,0.8125 5.5156,0.8125 1.7891,0 3.1602,-0.29688 4.1094,-0.89062 0.95703,-0.60156 1.4375,-1.457 1.4375,-2.5625 0,-1 -0.32422,-1.7695 -0.96875,-2.3125 -0.64844,-0.53906 -1.9375,-1.0234 -3.875,-1.4531 l -3.1875,-0.70312 c -3.1875,-0.6875 -5.5234,-1.7734 -7,-3.2656 -1.4688,-1.5 -2.2031,-3.5156 -2.2031,-6.0469 0,-3.1758 1.0234,-5.6172 3.0781,-7.3281 2.0508,-1.707 5,-2.5625 8.8438,-2.5625 1.75,0 3.5508,0.13281 5.4062,0.39062 1.8516,0.26172 3.7695,0.65625 5.75,1.1875 z"
         id="path474" /></symbol><symbol
       id="i-7"
       overflow="visible"><path
         d="M 27.734,-14.562 V 0 h -7.7031 v -11.156 c 0,-2.0625 -0.04687,-3.4844 -0.14062,-4.2656 -0.08594,-0.78125 -0.24219,-1.3594 -0.46875,-1.7344 -0.30469,-0.5 -0.71094,-0.88281 -1.2188,-1.1562 -0.51172,-0.28125 -1.0938,-0.42188 -1.75,-0.42188 -1.5938,0 -2.8516,0.61719 -3.7656,1.8438 -0.90625,1.2305 -1.3594,2.9375 -1.3594,5.125 v 11.766 h -7.6562 v -23.922 h 7.6562 v 3.5 c 1.1445,-1.3945 2.3633,-2.4219 3.6562,-3.0781 1.3008,-0.66406 2.7383,-1 4.3125,-1 2.7578,0 4.8516,0.85156 6.2812,2.5469 1.4375,1.6875 2.1562,4.1523 2.1562,7.3906 z"
         id="path477" /></symbol><symbol
       id="v"
       overflow="visible"><path
         d="m 18.766,-1.125 c -0.96875,0.5 -1.9805,0.875 -3.0312,1.125 -1.043,0.25781 -2.1367,0.39062 -3.2812,0.39062 -3.3984,0 -6.0898,-0.94531 -8.0781,-2.8438 -1.9922,-1.9062 -2.9844,-4.4844 -2.9844,-7.7344 0,-3.2578 0.99219,-5.8359 2.9844,-7.7344 1.9883,-1.9062 4.6797,-2.8594 8.0781,-2.8594 1.1445,0 2.2383,0.13281 3.2812,0.39062 1.0508,0.25 2.0625,0.625 3.0312,1.125 v 4.2188 c -0.98047,-0.65625 -1.9453,-1.1406 -2.8906,-1.4531 -0.94922,-0.3125 -1.9492,-0.46875 -3,-0.46875 -1.875,0 -3.3516,0.60547 -4.4219,1.8125 -1.0742,1.1992 -1.6094,2.8555 -1.6094,4.9688 0,2.1055 0.53516,3.7617 1.6094,4.9688 1.0703,1.1992 2.5469,1.7969 4.4219,1.7969 1.0508,0 2.0508,-0.14844 3,-0.45312 0.94531,-0.3125 1.9102,-0.80078 2.8906,-1.4688 z"
         id="path628" /></symbol><symbol
       id="c-2"
       overflow="visible"><path
         d="m 13.734,-11.141 c -0.4375,-0.19531 -0.87109,-0.34375 -1.2969,-0.4375 -0.41797,-0.10156 -0.83984,-0.15625 -1.2656,-0.15625 -1.2617,0 -2.2305,0.40625 -2.9062,1.2188 -0.67969,0.80469 -1.0156,1.9531 -1.0156,3.4531 v 7.0625 H 2.3591 v -15.312 h 4.8906 v 2.5156 c 0.625,-1 1.3438,-1.7266 2.1562,-2.1875 0.82031,-0.46875 1.8008,-0.70312 2.9375,-0.70312 0.16406,0 0.34375,0.01172 0.53125,0.03125 0.19531,0.01172 0.47656,0.03906 0.84375,0.07813 z"
         id="path631" /></symbol><symbol
       id="a-1"
       overflow="visible"><path
         d="m 17.641,-7.7031 v 1.4062 H 6.188 c 0.125,1.1484 0.53906,2.0078 1.25,2.5781 0.70703,0.57422 1.7031,0.85938 2.9844,0.85938 1.0312,0 2.082,-0.14844 3.1562,-0.45312 1.082,-0.3125 2.1914,-0.77344 3.3281,-1.3906 v 3.7656 c -1.1562,0.4375 -2.3125,0.76562 -3.4688,0.98438 -1.1562,0.22656 -2.3125,0.34375 -3.4688,0.34375 -2.7734,0 -4.9297,-0.70312 -6.4688,-2.1094 -1.5312,-1.4062 -2.2969,-3.3789 -2.2969,-5.9219 0,-2.5 0.75391,-4.4609 2.2656,-5.8906 1.5078,-1.4375 3.582,-2.1562 6.2188,-2.1562 2.4062,0 4.332,0.73047 5.7812,2.1875 1.4453,1.4492 2.1719,3.3828 2.1719,5.7969 z m -5.0312,-1.625 c 0,-0.92578 -0.27344,-1.6719 -0.8125,-2.2344 -0.54297,-0.57031 -1.25,-0.85938 -2.125,-0.85938 -0.94922,0 -1.7188,0.26562 -2.3125,0.79688 -0.5937,0.53126 -0.96484,1.2969 -1.1094,2.2969 z"
         id="path634" /></symbol><symbol
       id="l-4"
       overflow="visible"><path
         d="m 9.2188,-6.8906 c -1.0234,0 -1.793,0.17188 -2.3125,0.51562 -0.51172,0.34375 -0.76562,0.85547 -0.76562,1.5312 0,0.625 0.20703,1.1172 0.625,1.4688 0.41406,0.34375 0.98828,0.51562 1.7188,0.51562 0.92578,0 1.7031,-0.32812 2.3281,-0.98438 0.63281,-0.66406 0.95312,-1.4922 0.95312,-2.4844 v -0.5625 z m 7.4688,-1.8438 V 0 h -4.9219 v -2.2656 c -0.65625,0.92969 -1.3984,1.6055 -2.2188,2.0312 -0.82422,0.41406 -1.8242,0.625 -3,0.625 -1.5859,0 -2.8711,-0.45703 -3.8594,-1.375 -0.99219,-0.92578 -1.4844,-2.1289 -1.4844,-3.6094 0,-1.7891 0.61328,-3.1016 1.8438,-3.9375 1.2383,-0.84375 3.1797,-1.2656 5.8281,-1.2656 h 2.8906 v -0.39062 c 0,-0.76953 -0.30859,-1.332 -0.92188,-1.6875 -0.61719,-0.36328 -1.5703,-0.54688 -2.8594,-0.54688 -1.0547,0 -2.0312,0.10547 -2.9375,0.3125 -0.89844,0.21094 -1.7305,0.52344 -2.5,0.9375 v -3.7344 c 1.0391,-0.25 2.0859,-0.44141 3.1406,-0.57812 1.0625,-0.13281 2.125,-0.20312 3.1875,-0.20312 2.7578,0 4.75,0.54688 5.9688,1.6406 1.2266,1.0859 1.8438,2.8555 1.8438,5.3125 z"
         id="path637" /></symbol><symbol
       id="d-11"
       overflow="visible"><path
         d="m 7.7031,-19.656 v 4.3438 H 12.75 v 3.5 H 7.7031 v 6.5 c 0,0.71094 0.14062,1.1875 0.42188,1.4375 0.28126,0.25 0.83594,0.375 1.6719,0.375 h 2.5156 v 3.5 h -4.1875 c -1.9375,0 -3.3125,-0.39844 -4.125,-1.2031 -0.80469,-0.8125 -1.2031,-2.1797 -1.2031,-4.1094 v -6.5 h -2.4219 v -3.5 h 2.4219 v -4.3438 z"
         id="path640" /></symbol><symbol
       id="k-3"
       overflow="visible"><path
         d="m 12.766,-13.078 v -8.2031 h 4.9219 V -1e-4 H 12.766 v -2.2188 c -0.66797,0.90625 -1.4062,1.5703 -2.2188,1.9844 -0.8126,0.4141 -1.7578,0.625 -2.8281,0.625 -1.8867,0 -3.4336,-0.75 -4.6406,-2.25 -1.2109,-1.5 -1.8125,-3.4258 -1.8125,-5.7812 0,-2.3633 0.60156,-4.2969 1.8125,-5.7969 1.207,-1.5 2.7539,-2.25 4.6406,-2.25 1.0625,0 2,0.21484 2.8125,0.64062 0.82031,0.42969 1.5664,1.0859 2.2344,1.9688 z m -3.2188,9.9219 c 1.0391,0 1.8359,-0.37891 2.3906,-1.1406 0.55078,-0.76953 0.82812,-1.8828 0.82812,-3.3438 0,-1.457 -0.27734,-2.5664 -0.82812,-3.3281 -0.55469,-0.76953 -1.3516,-1.1562 -2.3906,-1.1562 -1.043,0 -1.8398,0.38672 -2.3906,1.1562 -0.55469,0.76172 -0.82812,1.8711 -0.82812,3.3281 0,1.4609 0.27344,2.5742 0.82812,3.3438 0.55078,0.76172 1.3477,1.1406 2.3906,1.1406 z"
         id="path643" /></symbol><symbol
       id="j-6"
       overflow="visible"><path
         d="m 10.5,-3.1562 c 1.0508,0 1.8516,-0.37891 2.4062,-1.1406 0.55078,-0.76953 0.82812,-1.8828 0.82812,-3.3438 0,-1.457 -0.27734,-2.5664 -0.82812,-3.3281 -0.55469,-0.76953 -1.3555,-1.1562 -2.4062,-1.1562 -1.0547,0 -1.8594,0.38672 -2.4219,1.1562 -0.55469,0.77344 -0.82812,1.8828 -0.82812,3.3281 0,1.4492 0.27344,2.5586 0.82812,3.3281 0.5625,0.77344 1.3672,1.1562 2.4219,1.1562 z m -3.25,-9.9219 c 0.67578,-0.88281 1.4219,-1.5391 2.2344,-1.9688 0.82031,-0.42578 1.7656,-0.64062 2.8281,-0.64062 1.8945,0 3.4453,0.75 4.6562,2.25 1.207,1.5 1.8125,3.4336 1.8125,5.7969 0,2.3555 -0.60547,4.2812 -1.8125,5.7812 -1.2109,1.5 -2.7617,2.25 -4.6562,2.25 -1.0625,0 -2.0078,-0.21094 -2.8281,-0.625 C 8.6719,-0.6602 7.9258,-1.32032 7.25,-2.21882 V -2e-5 H 2.3594 v -21.281 H 7.25 Z"
         id="path646" /></symbol><symbol
       id="i-3"
       overflow="visible"><path
         d="m 0.34375,-15.312 h 4.8906 l 4.125,10.391 3.5,-10.391 h 4.8906 l -6.4375,16.766 c -0.64844,1.6953 -1.4023,2.8828 -2.2656,3.5625 -0.86719,0.6875 -2,1.0312 -3.4062,1.0312 H 2.79685 V 2.8289 h 1.5312 c 0.83203,0 1.4375,-0.13672 1.8125,-0.40625 C 6.52336,2.16093 6.82024,1.69218 7.03117,1.01645 L 7.17179,0.59457 Z"
         id="path649" /></symbol><symbol
       id="h-8"
       overflow="visible"><path
         d="m 2.5781,-20.406 h 5.25 v 16.422 h 9.25 V 4e-4 h -14.5 z"
         id="path652" /></symbol><symbol
       id="u"
       overflow="visible"><path
         d="M 2.3594,-15.312 H 7.25 V 0 H 2.3594 Z m 0,-5.9688 H 7.25 v 4 H 2.3594 Z"
         id="path655" /></symbol><symbol
       id="e-6"
       overflow="visible"><path
         d="M 17.75,-9.3281 V 0 h -4.9219 v -7.1406 c 0,-1.3203 -0.03125,-2.2344 -0.09375,-2.7344 -0.0625,-0.5 -0.16797,-0.86719 -0.3125,-1.1094 -0.1875,-0.3125 -0.44922,-0.55469 -0.78125,-0.73438 -0.32422,-0.17578 -0.69531,-0.26562 -1.1094,-0.26562 -1.0234,0 -1.8242,0.39844 -2.4062,1.1875 -0.58594,0.78125 -0.875,1.8711 -0.875,3.2656 V -1e-4 H 2.3594 v -15.312 H 7.25 v 2.2344 c 0.73828,-0.88281 1.5195,-1.5391 2.3438,-1.9688 0.83203,-0.42578 1.75,-0.64062 2.75,-0.64062 1.7695,0 3.1133,0.54688 4.0312,1.6406 0.91406,1.0859 1.375,2.6562 1.375,4.7188 z"
         id="path658" /></symbol><symbol
       id="t"
       overflow="visible"><path
         d="m 2.5781,-20.406 h 5.25 V 0 h -5.25 z"
         id="path661" /></symbol><symbol
       id="g-6"
       overflow="visible"><path
         d="m 14.719,-14.828 v 3.9844 c -0.65625,-0.45703 -1.3242,-0.79688 -2,-1.0156 -0.66797,-0.21875 -1.3594,-0.32812 -2.0781,-0.32812 -1.3672,0 -2.4336,0.40234 -3.2031,1.2031 -0.76172,0.79297 -1.1406,1.9062 -1.1406,3.3438 0,1.4297 0.37891,2.543 1.1406,3.3438 0.76953,0.79297 1.8359,1.1875 3.2031,1.1875 0.75781,0 1.4844,-0.10938 2.1719,-0.32812 0.6875,-0.22656 1.3203,-0.56641 1.9062,-1.0156 v 4 c -0.76172,0.28125 -1.5391,0.48828 -2.3281,0.625 -0.78125,0.14453 -1.5742,0.21875 -2.375,0.21875 -2.7617,0 -4.9219,-0.70703 -6.4844,-2.125 -1.5547,-1.4141 -2.3281,-3.3828 -2.3281,-5.9062 0,-2.5312 0.77344,-4.5039 2.3281,-5.9219 1.5625,-1.4141 3.7227,-2.125 6.4844,-2.125 0.80078,0 1.5938,0.07422 2.375,0.21875 0.78125,0.13672 1.5547,0.35156 2.3281,0.64062 z"
         id="path664" /></symbol><symbol
       id="b-3"
       overflow="visible"><path
         d="m 9.6406,-12.188 c -1.0859,0 -1.9141,0.39062 -2.4844,1.1719 -0.57422,0.78125 -0.85938,1.9062 -0.85938,3.375 0,1.4688 0.28516,2.5938 0.85938,3.375 0.57031,0.77344 1.3984,1.1562 2.4844,1.1562 1.0625,0 1.875,-0.38281 2.4375,-1.1562 0.57031,-0.78125 0.85938,-1.9062 0.85938,-3.375 0,-1.4688 -0.28906,-2.5938 -0.85938,-3.375 -0.5625,-0.78125 -1.375,-1.1719 -2.4375,-1.1719 z m 0,-3.5 c 2.6328,0 4.6914,0.71484 6.1719,2.1406 1.4766,1.418 2.2188,3.3867 2.2188,5.9062 0,2.5117 -0.74219,4.4805 -2.2188,5.9062 C 14.332,-0.317 12.2734,0.39 9.6406,0.39 6.9922,0.39 4.9258,-0.31703 3.4375,-1.735 1.9453,-3.1608 1.2031,-5.1295 1.2031,-7.6412 c 0,-2.5195 0.74219,-4.4883 2.2344,-5.9062 1.4883,-1.4258 3.5547,-2.1406 6.2031,-2.1406 z"
         id="path667" /></symbol><symbol
       id="s"
       overflow="visible"><path
         d="m 14.312,-14.828 v 3.7188 c -1.043,-0.4375 -2.0547,-0.76562 -3.0312,-0.98438 -0.98047,-0.21875 -1.9023,-0.32812 -2.7656,-0.32812 -0.92969,0 -1.6211,0.11719 -2.0781,0.34375 -0.44922,0.23047 -0.67188,0.58984 -0.67188,1.0781 0,0.38672 0.17188,0.68359 0.51562,0.89062 0.34375,0.21094 0.95703,0.36719 1.8438,0.46875 l 0.85938,0.125 c 2.5078,0.32422 4.1953,0.85156 5.0625,1.5781 0.86328,0.73047 1.2969,1.8711 1.2969,3.4219 0,1.6367 -0.60547,2.8672 -1.8125,3.6875 -1.1992,0.8125 -2.9922,1.2188 -5.375,1.2188 -1.0234,0 -2.0742,-0.078125 -3.1562,-0.23438 -1.0742,-0.15625 -2.1797,-0.39453 -3.3125,-0.71875 v -3.7188 c 0.96875,0.48047 1.9609,0.83984 2.9844,1.0781 1.0312,0.23047 2.0781,0.34375 3.1406,0.34375 0.95703,0 1.6758,-0.12891 2.1562,-0.39062 0.47656,-0.26953 0.71875,-0.66406 0.71875,-1.1875 0,-0.4375 -0.16797,-0.75781 -0.5,-0.96875 -0.33594,-0.21875 -0.99609,-0.38281 -1.9844,-0.5 L 7.34339,-6.01551 c -2.1797,-0.26953 -3.7031,-0.77344 -4.5781,-1.5156 -0.875,-0.73828 -1.3125,-1.8594 -1.3125,-3.3594 0,-1.625 0.55078,-2.8281 1.6562,-3.6094 1.1133,-0.78906 2.8203,-1.1875 5.125,-1.1875 0.89453,0 1.8359,0.07422 2.8281,0.21875 1,0.13672 2.082,0.35156 3.25,0.64062 z"
         id="path670" /></symbol><symbol
       id="f-5"
       overflow="visible"><path
         d="m 2.5781,-20.406 h 8.7344 c 2.5938,0 4.582,0.57812 5.9688,1.7344 1.3945,1.1484 2.0938,2.7891 2.0938,4.9219 0,2.1367 -0.69922,3.7812 -2.0938,4.9375 -1.3867,1.1562 -3.375,1.7344 -5.9688,1.7344 H 7.8281 V 3e-4 h -5.25 z m 5.25,3.8125 v 5.7031 H 10.75 c 1.0195,0 1.8047,-0.25 2.3594,-0.75 0.5625,-0.5 0.84375,-1.2031 0.84375,-2.1094 0,-0.91406 -0.28125,-1.6172 -0.84375,-2.1094 -0.55469,-0.48828 -1.3398,-0.73438 -2.3594,-0.73438 z"
         id="path673" /></symbol><symbol
       id="r"
       overflow="visible"><path
         d="m 12.422,-21.281 v 3.2188 H 9.7189 c -0.6875,0 -1.1719,0.125 -1.4531,0.375 -0.27344,0.25 -0.40625,0.6875 -0.40625,1.3125 v 1.0625 h 4.1875 v 3.5 H 7.85955 V -2e-4 h -4.8906 v -11.812 h -2.4375 v -3.5 h 2.4375 v -1.0625 c 0,-1.6641 0.46094,-2.8984 1.3906,-3.7031 0.92578,-0.80078 2.3672,-1.2031 4.3281,-1.2031 z"
         id="path676" /></symbol><symbol
       id="q"
       overflow="visible"><path
         d="m 16.547,-12.766 c 0.61328,-0.94531 1.3477,-1.6719 2.2031,-2.1719 0.85156,-0.5 1.7891,-0.75 2.8125,-0.75 1.7578,0 3.0977,0.54688 4.0156,1.6406 0.92578,1.0859 1.3906,2.6562 1.3906,4.7188 V -4e-4 h -4.9219 v -7.9844 -0.35938 c 0.0078,-0.13281 0.01563,-0.32031 0.01563,-0.5625 0,-1.082 -0.16406,-1.8633 -0.48438,-2.3438 -0.3125,-0.48828 -0.82422,-0.73438 -1.5312,-0.73438 -0.92969,0 -1.6484,0.38672 -2.1562,1.1562 -0.51172,0.76172 -0.77344,1.8672 -0.78125,3.3125 v 7.5156 h -4.9219 v -7.9844 c 0,-1.6953 -0.14844,-2.7852 -0.4375,-3.2656 -0.29297,-0.48828 -0.8125,-0.73438 -1.5625,-0.73438 -0.9375,0 -1.6641,0.38672 -2.1719,1.1562 -0.51172,0.76172 -0.76562,1.8594 -0.76562,3.2969 v 7.5312 h -4.9219 v -15.312 h 4.9219 v 2.2344 c 0.60156,-0.86328 1.2891,-1.5156 2.0625,-1.9531 0.78125,-0.4375 1.6406,-0.65625 2.5781,-0.65625 1.0625,0 2,0.25781 2.8125,0.76562 0.8125,0.51172 1.4258,1.2305 1.8438,2.1562 z"
         id="path679" /></symbol><symbol
       id="p"
       overflow="visible"><path
         d="M 17.75,-9.3281 V 0 h -4.9219 v -7.1094 c 0,-1.3438 -0.03125,-2.2656 -0.09375,-2.7656 -0.0625,-0.5 -0.16797,-0.86719 -0.3125,-1.1094 -0.1875,-0.3125 -0.44922,-0.55469 -0.78125,-0.73438 -0.32422,-0.17578 -0.69531,-0.26562 -1.1094,-0.26562 -1.0234,0 -1.8242,0.39844 -2.4062,1.1875 -0.58594,0.78125 -0.875,1.8711 -0.875,3.2656 V -1e-4 H 2.3594 v -21.281 H 7.25 v 8.2031 c 0.73828,-0.88281 1.5195,-1.5391 2.3438,-1.9688 0.83203,-0.42578 1.75,-0.64062 2.75,-0.64062 1.7695,0 3.1133,0.54688 4.0312,1.6406 0.91406,1.0859 1.375,2.6562 1.375,4.7188 z"
         id="path682" /></symbol><symbol
       id="o"
       overflow="visible"><path
         d="m 2.5781,-20.406 h 5.875 l 7.4219,14 v -14 h 4.9844 V 0 h -5.875 L 7.5625,-14 V 0 H 2.5781 Z"
         id="path685" /></symbol><symbol
       id="n-2"
       overflow="visible"><path
         d="m 2.1875,-5.9688 v -9.3438 h 4.9219 v 1.5312 c 0,0.83594 -0.00781,1.875 -0.015625,3.125 -0.011719,1.25 -0.015625,2.0859 -0.015625,2.5 0,1.2422 0.03125,2.1328 0.09375,2.6719 0.070313,0.54297 0.17969,0.93359 0.32812,1.1719 0.20703,0.32422 0.47266,0.57422 0.79688,0.75 0.32031,0.16797 0.69141,0.25 1.1094,0.25 1.0195,0 1.8203,-0.39062 2.4062,-1.1719 0.58203,-0.78125 0.875,-1.8672 0.875,-3.2656 v -7.5625 h 4.8906 V -6e-4 H 12.6875 V -2.2194 C 11.94531,-1.32096 11.1641,-0.6608 10.3437,-0.235 9.51948,0.17906 8.6093,0.39 7.6093,0.39 5.8476,0.39 4.5038,-0.14906 3.5781,-1.235 2.64841,-2.317 2.1875,-3.8952 2.1875,-5.9694 Z"
         id="path688" /></symbol><symbol
       id="m-3"
       overflow="visible"><path
         d="M 2.3594,-15.312 H 7.25 v 15.031 c 0,2.0508 -0.49609,3.6172 -1.4844,4.7031 -0.98047,1.082 -2.4062,1.625 -4.2812,1.625 H -0.9375 V 2.8283 h 0.85938 c 0.92578,0 1.5625,-0.21094 1.9062,-0.625 0.35156,-0.41797 0.53125,-1.2461 0.53125,-2.4844 z m 0,-5.9688 H 7.25 v 4 H 2.3594 Z"
         id="path691" /></symbol><symbol
       id="v-7"
       overflow="visible"><path
         d="M 3.6562,-0.21875 C 3.4687,-0.125 3.26948,-0.05078 3.06245,0 2.86323,0.050781 2.6562,0.078125 2.43745,0.078125 c -0.66797,0 -1.1992,-0.17969 -1.5938,-0.54688 -0.38672,-0.375 -0.57812,-0.87891 -0.57812,-1.5156 0,-0.64453 0.19141,-1.1484 0.57812,-1.5156 0.39453,-0.375 0.92578,-0.5625 1.5938,-0.5625 0.21875,0 0.42578,0.027344 0.625,0.078125 0.20703,0.054687 0.40625,0.125 0.59375,0.21875 v 0.82812 c -0.1875,-0.125 -0.375,-0.21875 -0.5625,-0.28125 -0.17969,-0.0625 -0.37109,-0.09375 -0.57812,-0.09375 -0.36719,0 -0.65625,0.12109 -0.875,0.35938 -0.21094,0.23047 -0.3125,0.55469 -0.3125,0.96875 0,0.40625 0.10156,0.73047 0.3125,0.96875 0.21875,0.23047 0.50781,0.34375 0.875,0.34375 0.20703,0 0.39844,-0.023437 0.57812,-0.078125 0.1875,-0.0625 0.375,-0.16016 0.5625,-0.29688 z"
         id="path894" /></symbol><symbol
       id="d-2"
       overflow="visible"><path
         d="M 2.6875,-2.1719 C 2.601562,-2.210963 2.51953,-2.242213 2.4375,-2.26565 2.351562,-2.285181 2.26953,-2.2969 2.1875,-2.2969 c -0.25,0 -0.44531,0.085937 -0.57812,0.25 -0.125,0.15625 -0.1875,0.38281 -0.1875,0.67188 V -2e-5 H 0.45313 v -2.9844 h 0.96875 v 0.48438 c 0.11328,-0.19531 0.25,-0.33594 0.40625,-0.42188 0.16406,-0.09375 0.35938,-0.14062 0.57812,-0.14062 h 0.10938 c 0.039063,0 0.09375,0.00781 0.15625,0.015625 z"
         id="path897" /></symbol><symbol
       id="a-6"
       overflow="visible"><path
         d="m 3.4375,-1.5 v 0.26562 H 1.2031 c 0.03125,0.23047 0.11328,0.40234 0.25,0.51562 0.13281,0.10547 0.32812,0.15625 0.57812,0.15625 0.20703,0 0.41406,-0.023438 0.625,-0.078125 0.20703,-0.0625 0.42188,-0.15625 0.64062,-0.28125 v 0.73438 c -0.21875,0.09375 -0.44531,0.16406 -0.67188,0.20312 -0.23047,0.039062 -0.45312,0.0625 -0.67188,0.0625 -0.54297,0 -0.96484,-0.13281 -1.2656,-0.40625 -0.30469,-0.28125 -0.45312,-0.67188 -0.45312,-1.1719 0,-0.47656 0.14453,-0.85938 0.4375,-1.1406 0.30078,-0.28125 0.70703,-0.42188 1.2188,-0.42188 0.46875,0 0.84375,0.14062 1.125,0.42188 0.28125,0.28126 0.42188,0.66406 0.42188,1.1406 z M 2.46875,-1.82812 C 2.46875,-2.0039 2.410156,-2.14453 2.29687,-2.25 2.1914,-2.36328 2.05468,-2.42188 1.89062,-2.42188 c -0.1875,0 -0.33984,0.054687 -0.45312,0.15625 -0.11719,0.10547 -0.1875,0.25 -0.21875,0.4375 z"
         id="path900" /></symbol><symbol
       id="k-5"
       overflow="visible"><path
         d="m 1.7969,-1.3438 c -0.19922,0 -0.35156,0.039062 -0.45312,0.10938 -0.09375,0.0625 -0.14062,0.16406 -0.14062,0.29688 0,0.11719 0.035156,0.21094 0.10938,0.28125 0.082031,0.0625 0.19531,0.09375 0.34375,0.09375 0.17578,0 0.32812,-0.0625 0.45312,-0.1875 0.125,-0.125 0.1875,-0.28516 0.1875,-0.48438 V -1.3438 Z M 3.2657,-1.70318 V -8e-5 H 2.29695 v -0.4375 c -0.125,0.17969 -0.27344,0.30859 -0.4375,0.39062 -0.15625,0.082031 -0.35156,0.125 -0.57812,0.125 -0.3125,0 -0.57031,-0.085938 -0.76562,-0.26562 -0.1875,-0.1875 -0.28125,-0.42188 -0.28125,-0.70312 0,-0.35156 0.11719,-0.61328 0.35938,-0.78125 0.23828,-0.16406 0.61719,-0.25 1.1406,-0.25 h 0.5625 v -0.0625 c 0,-0.15625 -0.0625,-0.26562 -0.1875,-0.32812 -0.11719,-0.070312 -0.29688,-0.10938 -0.54688,-0.10938 -0.21094,0 -0.40234,0.023437 -0.57812,0.0625 -0.17969,0.042969 -0.33984,0.10156 -0.48438,0.17188 v -0.71875 c 0.19531,-0.050781 0.39844,-0.085938 0.60938,-0.10938 0.20703,-0.03125 0.41406,-0.046875 0.625,-0.046875 0.53906,0 0.92969,0.10938 1.1719,0.32812 0.23828,0.21094 0.35938,0.55469 0.35938,1.0312 z"
         id="path903" /></symbol><symbol
       id="b-68"
       overflow="visible"><path
         d="m 1.5,-3.8438 v 0.85938 h 0.98438 v 0.67188 H 1.5 v 1.2812 c 0,0.13672 0.023438,0.23047 0.078125,0.28125 0.0625,0.042969 0.17578,0.0625 0.34375,0.0625 h 0.48438 V -9e-5 h -0.8125 c -0.38672,0 -0.65625,-0.078125 -0.8125,-0.23438 -0.15625,-0.156255 -0.23438,-0.42188 -0.23438,-0.79688 v -1.2812 h -0.46875 v -0.67188 h 0.46875 v -0.85938 z"
         id="path906" /></symbol><symbol
       id="j-0"
       overflow="visible"><path
         d="M 2.5,-2.5469 V -4.1563 H 3.45312 V -1e-4 H 2.5 v -0.4375 c -0.13672,0.17969 -0.28125,0.30859 -0.4375,0.39062 -0.15625,0.082031 -0.33984,0.125 -0.54688,0.125 -0.375,0 -0.68359,-0.14453 -0.92188,-0.4375 -0.23047,-0.28906 -0.34375,-0.67188 -0.34375,-1.1406 0,-0.45703 0.11328,-0.83203 0.34375,-1.125 0.23828,-0.28906 0.54688,-0.4375 0.92188,-0.4375 0.19531,0 0.375,0.042969 0.53125,0.125 0.16406,0.085938 0.31641,0.21484 0.45312,0.39062 z m -0.64062,1.9375 c 0.20703,0 0.36328,-0.070313 0.46875,-0.21875 0.11328,-0.15625 0.17188,-0.37891 0.17188,-0.67188 0,-0.28125 -0.058594,-0.49219 -0.17188,-0.64062 -0.10547,-0.15625 -0.26172,-0.23438 -0.46875,-0.23438 -0.19922,0 -0.35547,0.078125 -0.46875,0.23438 -0.10547,0.14844 -0.15625,0.35938 -0.15625,0.64062 0,0.29297 0.050781,0.51562 0.15625,0.67188 0.11328,0.14844 0.26953,0.21875 0.46875,0.21875 z"
         id="path909" /></symbol><symbol
       id="i-2"
       overflow="visible"><path
         d="m 2.0469,-0.60938 c 0.20703,0 0.36328,-0.070313 0.46875,-0.21875 0.11328,-0.15625 0.17188,-0.37891 0.17188,-0.67188 0,-0.28125 -0.058594,-0.49219 -0.17188,-0.64062 -0.10547,-0.15625 -0.26172,-0.23438 -0.46875,-0.23438 -0.19922,0 -0.35547,0.078125 -0.46875,0.23438 -0.10547,0.14844 -0.15625,0.35938 -0.15625,0.64062 0,0.29297 0.050781,0.51562 0.15625,0.67188 0.11328,0.14844 0.26953,0.21875 0.46875,0.21875 z m -0.625,-1.9375 c 0.125,-0.17578 0.26562,-0.30469 0.42188,-0.39062 0.16406,-0.082031 0.35156,-0.125 0.5625,-0.125 0.36328,0 0.66406,0.14844 0.90625,0.4375 0.23828,0.29297 0.35938,0.66797 0.35938,1.125 0,0.46875 -0.12109,0.85156 -0.35938,1.1406 -0.24219,0.29297 -0.54297,0.4375 -0.90625,0.4375 -0.21094,0 -0.39844,-0.042969 -0.5625,-0.125 C 1.68753,-0.128931 1.5469,-0.25784 1.4219,-0.43752 V -2e-5 H 0.45315 v -4.1562 H 1.4219 Z"
         id="path912" /></symbol><symbol
       id="h-23"
       overflow="visible"><path
         d="m 0.0625,-2.9844 h 0.95312 l 0.8125,2.0156 0.6875,-2.0156 H 3.46874 L 2.20314,0.2812 C 2.07814,0.61323 1.9297,0.84761 1.76564,0.98432 1.59767,1.11713 1.37502,1.18744 1.09376,1.18744 H 0.54688 V 0.54682 h 0.29688 c 0.16406,0 0.28516,-0.027344 0.35938,-0.078125 0.070313,-0.054688 0.12891,-0.14062 0.17188,-0.26562 l 0.03125,-0.09375 z"
         id="path915" /></symbol><symbol
       id="g-24"
       overflow="visible"><path
         d="m 0.5,-3.9844 h 2.7812 v 0.78125 h -1.75 v 0.73438 h 1.6406 v 0.78125 H 1.5312 v 0.90625 H 3.3281 V -2e-5 H 0.5 Z"
         id="path918" /></symbol><symbol
       id="e-82"
       overflow="visible"><path
         d="m 2.875,-2.8906 v 0.76562 C 2.75,-2.207011 2.61719,-2.26951 2.48438,-2.31248 2.34766,-2.351542 2.21094,-2.37498 2.07813,-2.37498 c -0.27344,0 -0.48047,0.078125 -0.625,0.23438 -0.14844,0.15625 -0.21875,0.37109 -0.21875,0.64062 0,0.28125 0.070313,0.5 0.21875,0.65625 0.14453,0.15625 0.35156,0.23438 0.625,0.23438 0.14453,0 0.28516,-0.019531 0.42188,-0.0625 0.13281,-0.039063 0.25781,-0.10938 0.375,-0.20312 v 0.78125 c -0.14844,0.0625 -0.29688,0.10156 -0.45312,0.125 -0.15625,0.03125 -0.3125,0.046875 -0.46875,0.046875 -0.54297,0 -0.96484,-0.13281 -1.2656,-0.40625 -0.30469,-0.28125 -0.45312,-0.67188 -0.45312,-1.1719 0,-0.48828 0.14844,-0.86719 0.45312,-1.1406 0.30078,-0.28125 0.72266,-0.42188 1.2656,-0.42188 0.15625,0 0.3125,0.015625 0.46875,0.046875 0.15625,0.023437 0.30469,0.0625 0.45312,0.125 z"
         id="path921" /></symbol><symbol
       id="c-3"
       overflow="visible"><path
         d="m 1.875,-2.375 c -0.21094,0 -0.37109,0.078125 -0.48438,0.23438 -0.10547,0.14844 -0.15625,0.35938 -0.15625,0.64062 0,0.29297 0.050781,0.51562 0.15625,0.67188 0.11328,0.14844 0.27344,0.21875 0.48438,0.21875 0.20703,0 0.36719,-0.070313 0.48438,-0.21875 C 2.47266,-0.98437 2.53126,-1.20703 2.53126,-1.5 2.53126,-1.78125 2.472666,-1.99219 2.35938,-2.14062 2.24219,-2.29687 2.08204,-2.375 1.875,-2.375 Z m 0,-0.6875 c 0.51953,0 0.92188,0.14062 1.2031,0.42188 0.28906,0.27344 0.4375,0.65234 0.4375,1.1406 0,0.5 -0.14844,0.89062 -0.4375,1.1719 C 2.79685,-0.05468 2.39451,0.07813 1.875,0.07813 1.36328,0.07813 0.96094,-0.05468 0.6719,-0.32812 0.37893,-0.60937 0.2344,-1 0.2344,-1.50002 c 0,-0.48828 0.14453,-0.86719 0.4375,-1.1406 C 0.96096,-2.92187 1.36331,-3.0625 1.875,-3.0625 Z"
         id="path924" /></symbol><symbol
       id="f-8"
       overflow="visible"><path
         d="M 3.4688,-1.8281 V 0 H 2.50005 v -1.3906 c 0,-0.25781 -0.00781,-0.4375 -0.015625,-0.53125 -0.011719,-0.10156 -0.03125,-0.17578 -0.0625,-0.21875 -0.03125,-0.0625 -0.085937,-0.10938 -0.15625,-0.14062 -0.0625,-0.039062 -0.13281,-0.0625 -0.20312,-0.0625 -0.21094,0 -0.37109,0.078125 -0.48438,0.23438 -0.10547,0.15625 -0.15625,0.37109 -0.15625,0.64062 V 8e-5 h -0.96875 v -2.9844 h 0.96875 v 0.4375 c 0.13281,-0.17578 0.28516,-0.30469 0.45312,-0.39062 0.16406,-0.082031 0.34375,-0.125 0.53125,-0.125 0.34375,0 0.60156,0.10938 0.78125,0.32812 0.1875,0.21094 0.28125,0.51172 0.28125,0.90625 z"
         id="path927" /></symbol><symbol
       id="u-5"
       overflow="visible"><path
         d="M 1.4219,-0.4375 V 1.1406 H 0.45315 v -4.125 H 1.4219 v 0.4375 c 0.125,-0.17578 0.26562,-0.30469 0.42188,-0.39062 0.16406,-0.082031 0.35156,-0.125 0.5625,-0.125 0.36328,0 0.66406,0.14844 0.90625,0.4375 0.23828,0.29297 0.35938,0.66797 0.35938,1.125 0,0.46875 -0.12109,0.85156 -0.35938,1.1406 -0.24219,0.29297 -0.54297,0.4375 -0.90625,0.4375 -0.21094,0 -0.39844,-0.042969 -0.5625,-0.125 C 1.68753,-0.128951 1.5469,-0.25786 1.4219,-0.43754 Z m 0.625,-1.9375 c -0.19922,0 -0.35547,0.078125 -0.46875,0.23438 C 1.47268,-1.99218 1.4219,-1.78124 1.4219,-1.5 c 0,0.29297 0.050781,0.51562 0.15625,0.67188 0.11328,0.14844 0.26953,0.21875 0.46875,0.21875 0.20703,0 0.36328,-0.070313 0.46875,-0.21875 C 2.62893,-0.98437 2.68753,-1.20703 2.68753,-1.5 2.68753,-1.78125 2.628936,-1.99219 2.51565,-2.14062 2.41018,-2.29687 2.25393,-2.375 2.0469,-2.375 Z"
         id="path930" /></symbol><symbol
       id="t-7"
       overflow="visible"><path
         d="M 0.45312,-2.9844 H 1.42187 V 0 H 0.45312 Z m 0,-1.1719 h 0.96875 v 0.78125 H 0.45312 Z"
         id="path933" /></symbol><symbol
       id="s-2"
       overflow="visible"><path
         d="m 0.078125,-2.9844 h 0.95312 l 0.75,2.0625 0.75,-2.0625 h 0.95312 L 2.312465,0 h -1.0625 z"
         id="path936" /></symbol><symbol
       id="r-8"
       overflow="visible"><path
         d="m 2.4219,-4.1562 v 0.625 H 1.90628 c -0.13672,0 -0.23438,0.027344 -0.29688,0.078125 -0.054687,0.054687 -0.078125,0.13672 -0.078125,0.25 v 0.21875 h 0.82812 v 0.67188 h -0.82812 v 2.3125 h -0.95312 v -2.3125 h -0.46875 v -0.67188 h 0.46875 v -0.21875 c 0,-0.32031 0.085937,-0.5625 0.26562,-0.71875 0.1875,-0.15625 0.47266,-0.23438 0.85938,-0.23438 z"
         id="path939" /></symbol><symbol
       id="q-8"
       overflow="visible"><path
         d="m 3.2344,-2.5 c 0.11328,-0.17578 0.25391,-0.3125 0.42188,-0.40625 0.16406,-0.10156 0.35156,-0.15625 0.5625,-0.15625 0.33203,0 0.58594,0.10938 0.76562,0.32812 0.1875,0.21094 0.28125,0.51172 0.28125,0.90625 V -3e-5 H 4.2969 v -1.5625 c 0.00781,-0.019531 0.015625,-0.039062 0.015625,-0.0625 v -0.10938 c 0,-0.21875 -0.03125,-0.375 -0.09375,-0.46875 -0.0625,-0.09375 -0.16406,-0.14062 -0.29688,-0.14062 -0.1875,0 -0.33594,0.078125 -0.4375,0.23438 -0.09375,0.14844 -0.14062,0.35938 -0.14062,0.64062 V 2e-5 h -0.96875 v -1.5625 c 0,-0.33203 -0.03125,-0.54688 -0.09375,-0.64062 -0.054688,-0.09375 -0.15234,-0.14062 -0.29688,-0.14062 -0.17969,0 -0.32031,0.078125 -0.42188,0.23438 -0.09375,0.14844 -0.14062,0.35938 -0.14062,0.64062 V 8e-5 h -0.96875 v -2.9844 h 0.96875 v 0.4375 c 0.11328,-0.17578 0.24219,-0.30469 0.39062,-0.39062 0.15625,-0.082031 0.32812,-0.125 0.51562,-0.125 0.20703,0 0.39062,0.054688 0.54688,0.15625 0.15625,0.09375 0.27344,0.23047 0.35938,0.40625 z"
         id="path942" /></symbol><symbol
       id="p-7"
       overflow="visible"><path
         d="M 3.4688,-1.8281 V 0 H 2.50005 v -1.3906 c 0,-0.25781 -0.00781,-0.4375 -0.015625,-0.53125 -0.011719,-0.10156 -0.03125,-0.17578 -0.0625,-0.21875 -0.03125,-0.0625 -0.085937,-0.10938 -0.15625,-0.14062 -0.0625,-0.039062 -0.13281,-0.0625 -0.20312,-0.0625 -0.21094,0 -0.37109,0.078125 -0.48438,0.23438 -0.10547,0.15625 -0.15625,0.37109 -0.15625,0.64062 V 8e-5 h -0.96875 v -4.1562 h 0.96875 v 1.6094 c 0.13281,-0.17578 0.28516,-0.30469 0.45312,-0.39062 0.16406,-0.082031 0.34375,-0.125 0.53125,-0.125 0.34375,0 0.60156,0.10938 0.78125,0.32812 0.1875,0.21094 0.28125,0.51172 0.28125,0.90625 z"
         id="path945" /></symbol><symbol
       id="o-7"
       overflow="visible"><path
         d="M 0.5,-3.9844 H 1.6562 L 3.0937,-1.25 V -3.9844 H 4.07808 V 0 H 2.92188 L 1.48438,-2.7344 V 0 H 0.5 Z"
         id="path948" /></symbol><symbol
       id="n-3"
       overflow="visible"><path
         d="m 0.42188,-1.1719 v -1.8125 h 0.96875 v 0.29688 0.60938 0.48438 c 0,0.24219 0.00391,0.41797 0.015625,0.53125 0.00781,0.10547 0.03125,0.17969 0.0625,0.21875 0.039062,0.0625 0.09375,0.11719 0.15625,0.15625 0.0625,0.03125 0.13281,0.046875 0.21875,0.046875 0.19531,0 0.35156,-0.078125 0.46875,-0.23438 0.11328,-0.15625 0.17188,-0.36719 0.17188,-0.64062 v -1.4688 h 0.95312 v 2.9844 h -0.95312 v -0.4375 c -0.14844,0.17969 -0.30469,0.30859 -0.46875,0.39062 -0.15625,0.082031 -0.33594,0.125 -0.53125,0.125 -0.34375,0 -0.60938,-0.10156 -0.79688,-0.3125 -0.17969,-0.21875 -0.26562,-0.53125 -0.26562,-0.9375 z"
         id="path951" /></symbol><symbol
       id="m-5"
       overflow="visible"><path
         d="m 0.5,-3.9844 h 1.7031 c 0.50781,0 0.89844,0.11719 1.1719,0.34375 0.26953,0.21875 0.40625,0.53906 0.40625,0.95312 0,0.41797 -0.13672,0.74219 -0.40625,0.96875 -0.27344,0.21875 -0.66406,0.32812 -1.1719,0.32812 H 1.53122 V -6e-5 h -1.0312 z m 1.0312,0.75 v 1.1094 h 0.5625 c 0.19531,0 0.34766,-0.046875 0.45312,-0.14062 C 2.6601,-2.36718 2.7187,-2.50781 2.7187,-2.6875 2.7187,-2.86328 2.660106,-3 2.54682,-3.09375 2.44135,-3.1875 2.28901,-3.23437 2.0937,-3.23437 Z"
         id="path954" /></symbol><symbol
       id="l-39"
       overflow="visible"><path
         d="m 0.45312,-2.9844 h 0.96875 v 2.9375 c 0,0.39453 -0.10156,0.69531 -0.29688,0.90625 C 0.93749,1.0781 0.66015,1.18747 0.29687,1.18747 H -0.18751 V 0.54685 h 0.17188 c 0.17578,0 0.29688,-0.042969 0.35938,-0.125 C 0.414062,0.347631 0.45313,0.19138 0.45313,-0.0469 Z m 0,-1.1719 h 0.96875 v 0.78125 H 0.45312 Z"
         id="path957" /></symbol><symbol
       id="v-0"
       overflow="visible"><path
         d="M 10.812,-0.64062 C 10.25731,-0.35937 9.6792,-0.14453 9.0776,0 8.47213,0.15625 7.8432,0.23438 7.187,0.23438 c -1.9688,0 -3.5273,-0.54688 -4.6719,-1.6406 -1.1484,-1.1016 -1.7188,-2.5938 -1.7188,-4.4688 0,-1.875 0.57031,-3.3594 1.7188,-4.4531 1.1445,-1.1016 2.7031,-1.6562 4.6719,-1.6562 0.65625,0 1.2852,0.07813 1.8906,0.23438 0.60156,0.14844 1.1797,0.35938 1.7344,0.64062 v 2.4375 C 10.2495,-9.05463 9.6909,-9.33588 9.1401,-9.51557 8.59713,-9.69135 8.0229,-9.78119 7.4213,-9.78119 c -1.0859,0 -1.9375,0.35156 -2.5625,1.0469 -0.61719,0.6875 -0.92188,1.6406 -0.92188,2.8594 0,1.2188 0.30469,2.1797 0.92188,2.875 0.625,0.6875 1.4766,1.0312 2.5625,1.0312 0.60156,0 1.1758,-0.085938 1.7188,-0.26562 0.55078,-0.17578 1.1094,-0.45703 1.6719,-0.84375 z"
         id="path1136" /></symbol><symbol
       id="d-8"
       overflow="visible"><path
         d="M 7.9062,-6.4219 C 7.66401,-6.53518 7.42182,-6.61721 7.17182,-6.6719 6.92963,-6.7344 6.68744,-6.76565 6.43744,-6.76565 c -0.73047,0 -1.293,0.23438 -1.6875,0.70312 -0.38672,0.46875 -0.57812,1.1367 -0.57812,2 V -3e-5 h -2.8125 v -8.8281 h 2.8125 v 1.4531 c 0.36328,-0.58203 0.78125,-1.0039 1.25,-1.2656 0.46875,-0.26953 1.0312,-0.40625 1.6875,-0.40625 0.10156,0 0.20703,0.00781 0.3125,0.015625 0.11328,0.011719 0.27344,0.027344 0.48438,0.046875 z"
         id="path1139" /></symbol><symbol
       id="b-1"
       overflow="visible"><path
         d="m 10.172,-4.4375 v 0.79688 H 3.5626 c 0.070312,0.66797 0.3125,1.168 0.71875,1.5 0.41406,0.33594 0.98828,0.5 1.7188,0.5 0.59375,0 1.2031,-0.085937 1.8281,-0.26562 0.625,-0.17578 1.2656,-0.44531 1.9219,-0.8125 v 2.1875 c -0.66797,0.25 -1.3359,0.4375 -2,0.5625 -0.66797,0.13281 -1.3359,0.20312 -2,0.20312 -1.6055,0 -2.8516,-0.40625 -3.7344,-1.2188 -0.88672,-0.8125 -1.3281,-1.9531 -1.3281,-3.4219 0,-1.4375 0.42969,-2.5664 1.2969,-3.3906 0.875,-0.83203 2.0781,-1.25 3.6094,-1.25 1.3828,0 2.4922,0.42188 3.3281,1.2656 0.83203,0.83594 1.25,1.9492 1.25,3.3438 z M 7.2658,-5.375 c 0,-0.53125 -0.15625,-0.95703 -0.46875,-1.2812 -0.3125,-0.33203 -0.71875,-0.5 -1.2188,-0.5 -0.55469,0 -1,0.15625 -1.3438,0.46875 -0.33594,0.30469 -0.54297,0.74219 -0.625,1.3125 z"
         id="path1142" /></symbol><symbol
       id="c-6"
       overflow="visible"><path
         d="m 5.3125,-3.9688 c -0.59375,0 -1.043,0.10156 -1.3438,0.29688 -0.29297,0.19922 -0.4375,0.49219 -0.4375,0.875 0,0.36719 0.11719,0.65234 0.35938,0.85938 0.23828,0.19922 0.57031,0.29688 1,0.29688 0.53125,0 0.97656,-0.19141 1.3438,-0.57812 0.36328,-0.38281 0.54688,-0.86328 0.54688,-1.4375 v -0.3125 z M 9.625,-5.0313 V -1e-4 H 6.7812 V -1.3126 C 6.39448,-0.76963 5.9687,-0.3751 5.5,-0.1251 5.03125,0.11318 4.457,0.23428 3.7812,0.23428 2.86323,0.23428 2.1171,-0.03134 1.5468,-0.5626 0.97258,-1.10166 0.68742,-1.797 0.68742,-2.6407 c 0,-1.0391 0.35156,-1.8008 1.0625,-2.2812 0.71875,-0.48828 1.8359,-0.73438 3.3594,-0.73438 h 1.6719 v -0.21875 c 0,-0.44531 -0.17969,-0.76953 -0.53125,-0.96875 -0.35547,-0.20703 -0.90234,-0.3125 -1.6406,-0.3125 -0.60547,0 -1.168,0.0625 -1.6875,0.1875 -0.52344,0.11719 -1.0078,0.29297 -1.4531,0.53125 v -2.1562 c 0.60156,-0.14453 1.207,-0.25391 1.8125,-0.32812 0.61328,-0.082031 1.2227,-0.125 1.8281,-0.125 1.5938,0 2.7422,0.32031 3.4531,0.95312 0.70703,0.625 1.0625,1.6484 1.0625,3.0625 z"
         id="path1145" /></symbol><symbol
       id="a-5"
       overflow="visible"><path
         d="m 4.4375,-11.328 v 2.5 h 2.9062 v 2.0156 H 4.4375 v 3.75 c 0,0.40625 0.078125,0.68359 0.23438,0.82812 0.16406,0.14844 0.49219,0.21875 0.98438,0.21875 h 1.4375 V 7e-5 h -2.4062 c -1.1172,0 -1.9062,-0.22656 -2.375,-0.6875 -0.46875,-0.46875 -0.70312,-1.2578 -0.70312,-2.375 v -3.75 h -1.3906 v -2.0156 h 1.3906 v -2.5 z"
         id="path1148" /></symbol><symbol
       id="g-5"
       overflow="visible"><path
         d="m 7.3594,-7.5312 v -4.7344 h 2.8438 V 4e-4 H 7.3594 v -1.2812 c -0.38672,0.52344 -0.8125,0.90625 -1.2812,1.1562 -0.46875,0.23828 -1.0117,0.35938 -1.625,0.35938 -1.0859,0 -1.9805,-0.42969 -2.6875,-1.2969 -0.69922,-0.86328 -1.0469,-1.9766 -1.0469,-3.3438 0,-1.3633 0.34766,-2.4766 1.0469,-3.3438 0.70703,-0.86328 1.6016,-1.2969 2.6875,-1.2969 0.60156,0 1.1406,0.125 1.6094,0.375 0.47656,0.24219 0.91016,0.62109 1.2969,1.1406 z M 5.5,-1.8281 c 0.60156,0 1.0625,-0.21875 1.375,-0.65625 0.32031,-0.4375 0.48438,-1.0781 0.48438,-1.9219 0,-0.8438 -0.16406,-1.4844 -0.48438,-1.9219 C 6.5625,-6.76565 6.10156,-6.9844 5.5,-6.9844 c -0.59375,0 -1.0547,0.21875 -1.375,0.65625 -0.3125,0.4375 -0.46875,1.0781 -0.46875,1.9219 0,0.8438 0.15625,1.4844 0.46875,1.9219 0.32031,0.4375 0.78125,0.65625 1.375,0.65625 z"
         id="path1151" /></symbol><symbol
       id="l-2"
       overflow="visible"><path
         d="m 6.0469,-1.8281 c 0.60156,0 1.0625,-0.21875 1.375,-0.65625 0.32031,-0.4375 0.48438,-1.0781 0.48438,-1.9219 0,-0.8438 -0.16406,-1.4844 -0.48438,-1.9219 -0.3125,-0.4375 -0.77344,-0.65625 -1.375,-0.65625 -0.60547,0 -1.0703,0.22656 -1.3906,0.67188 -0.32422,0.4375 -0.48438,1.0742 -0.48438,1.9062 0,0.83594 0.16016,1.4766 0.48438,1.9219 0.32031,0.4375 0.78516,0.65625 1.3906,0.65625 z m -1.875,-5.7031 c 0.39453,-0.51953 0.82812,-0.89844 1.2969,-1.1406 0.46875,-0.25 1.0078,-0.375 1.625,-0.375 1.0938,0 1.9883,0.43359 2.6875,1.2969 0.69531,0.86719 1.0469,1.9805 1.0469,3.3438 0,1.3672 -0.35156,2.4805 -1.0469,3.3438 -0.69922,0.86719 -1.5938,1.2969 -2.6875,1.2969 -0.61719,0 -1.1562,-0.12109 -1.625,-0.35938 -0.46875,-0.25 -0.90234,-0.63281 -1.2969,-1.1562 V 2.2e-4 H 1.3594 v -12.266 h 2.8125 z"
         id="path1154" /></symbol><symbol
       id="k-2"
       overflow="visible"><path
         d="m 0.20312,-8.8281 h 2.8125 l 2.375,5.9844 2.0156,-5.9844 h 2.8281 l -3.7188,9.6562 c -0.375,0.98828 -0.8125,1.6758 -1.3125,2.0625 -0.49219,0.39453 -1.1406,0.59375 -1.9531,0.59375 h -1.6406 v -1.8594 h 0.89062 c 0.47656,0 0.82812,-0.078125 1.0469,-0.23438 0.21875,-0.14844 0.38281,-0.41797 0.5,-0.8125 L 4.124965,0.34369 Z"
         id="path1157" /></symbol><symbol
       id="j-1"
       overflow="visible"><path
         d="m 1.4844,-11.766 h 3.8594 l 2.6719,6.2969 2.7031,-6.2969 h 3.8594 V 0 h -2.875 V -8.6094 L 9.0001,-2.2656 H 7.0626 L 4.3595,-8.6094 V 0 h -2.875 z"
         id="path1160" /></symbol><symbol
       id="i-25"
       overflow="visible"><path
         d="m 1.2656,-3.4375 v -5.3906 h 2.8281 v 0.89062 c 0,0.46875 -0.00781,1.0703 -0.015625,1.7969 v 1.4375 c 0,0.71094 0.015625,1.2188 0.046875,1.5312 0.039062,0.3125 0.10938,0.54297 0.20312,0.6875 0.11328,0.1875 0.26562,0.33594 0.45312,0.4375 0.1875,0.09375 0.39844,0.14062 0.64062,0.14062 0.59375,0 1.0547,-0.22266 1.3906,-0.67188 0.33203,-0.45703 0.5,-1.0859 0.5,-1.8906 v -4.3594 h 2.8281 V -4e-5 h -2.8281 v -1.2812 c -0.42969,0.52344 -0.88281,0.90625 -1.3594,1.1562 -0.46875,0.23828 -0.99219,0.35938 -1.5625,0.35938 -1.0234,0 -1.7969,-0.3125 -2.3281,-0.9375 -0.5312,-0.625 -0.79688,-1.5352 -0.79688,-2.7344 z"
         id="path1163" /></symbol><symbol
       id="h-6"
       overflow="visible"><path
         d="M 10.234,-5.375 V 0 H 7.3902 v -4.0938 c 0,-0.76953 -0.015625,-1.3008 -0.046875,-1.5938 -0.03125,-0.28906 -0.09375,-0.50391 -0.1875,-0.64062 -0.10547,-0.1875 -0.25,-0.32812 -0.4375,-0.42188 -0.1875,-0.10156 -0.40625,-0.15625 -0.65625,-0.15625 -0.58594,0 -1.0469,0.23047 -1.3906,0.6875 -0.33594,0.44922 -0.5,1.0742 -0.5,1.875 V -5e-5 h -2.8125 v -12.266 h 2.8125 v 4.7344 c 0.42578,-0.51953 0.87891,-0.89844 1.3594,-1.1406 0.47656,-0.25 1.0039,-0.375 1.5781,-0.375 1.0195,0 1.7969,0.32031 2.3281,0.95312 0.53125,0.625 0.79688,1.5312 0.79688,2.7188 z"
         id="path1166" /></symbol><symbol
       id="f-58"
       overflow="visible"><path
         d="m 9.5312,-7.3594 c 0.36328,-0.55078 0.78906,-0.96875 1.2812,-1.25 0.48828,-0.28906 1.0234,-0.4375 1.6094,-0.4375 1.0195,0 1.7969,0.32031 2.3281,0.95312 0.53125,0.625 0.79688,1.5312 0.79688,2.7188 V 2e-5 h -2.8438 v -4.6094 c 0.0078,-0.0625 0.01563,-0.12891 0.01563,-0.20312 V -5.125 c 0,-0.625 -0.09375,-1.0781 -0.28125,-1.3594 -0.17969,-0.28125 -0.47656,-0.42188 -0.89062,-0.42188 -0.53125,0 -0.94531,0.21875 -1.2344,0.65625 -0.29297,0.4375 -0.44531,1.0781 -0.45312,1.9219 V -3e-5 h -2.8438 v -4.6094 c 0,-0.96875 -0.085937,-1.5938 -0.25,-1.875 -0.16797,-0.28125 -0.46484,-0.42188 -0.89062,-0.42188 -0.54297,0 -0.96484,0.22656 -1.2656,0.67188 -0.29297,0.4375 -0.4375,1.0703 -0.4375,1.8906 V -3e-5 H 1.3436 v -8.8281 h 2.8281 v 1.2969 c 0.35156,-0.5 0.75391,-0.875 1.2031,-1.125 0.44531,-0.25781 0.94141,-0.39062 1.4844,-0.39062 0.60156,0 1.1406,0.15234 1.6094,0.45312 0.46875,0.29297 0.82031,0.70312 1.0625,1.2344 z"
         id="path1169" /></symbol><symbol
       id="u-8"
       overflow="visible"><path
         d="M 8.625,-2.1406 H 3.875 L 3.125,0 H 0.0781 L 4.4375,-11.766 H 8.0469 L 12.4063,0 H 9.3594 Z M 4.6406,-4.3281 H 7.8594 L 6.25,-9.0156 Z"
         id="path1172" /></symbol><symbol
       id="t-9"
       overflow="visible"><path
         d="M 1.3594,-8.8281 H 4.1719 V 0 H 1.3594 Z m 0,-3.4375 h 2.8125 v 2.2969 H 1.3594 Z"
         id="path1175" /></symbol><symbol
       id="s-9"
       overflow="visible"><path
         d="m 5.5,-6.9844 c -0.59375,0 -1.0547,0.21875 -1.375,0.65625 -0.3125,0.4375 -0.46875,1.0781 -0.46875,1.9219 0,0.8438 0.15625,1.4844 0.46875,1.9219 0.32031,0.4375 0.78125,0.65625 1.375,0.65625 0.60156,0 1.0625,-0.21875 1.375,-0.65625 0.32031,-0.4375 0.48438,-1.0781 0.48438,-1.9219 0,-0.8438 -0.16406,-1.4844 -0.48438,-1.9219 C 6.5625,-6.76565 6.10156,-6.9844 5.5,-6.9844 Z m 1.8594,5.7031 c -0.38672,0.52344 -0.8125,0.90625 -1.2812,1.1562 -0.46875,0.23828 -1.0117,0.35938 -1.625,0.35938 -1.0859,0 -1.9805,-0.42969 -2.6875,-1.2969 -0.69922,-0.86328 -1.0469,-1.9766 -1.0469,-3.3438 0,-1.3633 0.34766,-2.4727 1.0469,-3.3281 0.70703,-0.86328 1.6016,-1.2969 2.6875,-1.2969 0.61328,0 1.1562,0.125 1.625,0.375 0.46875,0.24219 0.89453,0.62109 1.2812,1.1406 v -1.3125 h 2.8438 v 12.188 H 7.3594 Z"
         id="path1178" /></symbol><symbol
       id="r-3"
       overflow="visible"><path
         d="m 7.1562,-12.266 v 1.8594 H 5.6093 c -0.40625,0 -0.6875,0.07422 -0.84375,0.21875 -0.15625,0.13672 -0.23438,0.38672 -0.23438,0.75 v 0.60938 h 2.4062 v 2.0156 h -2.4062 v 6.8125 h -2.8281 v -6.8125 h -1.3906 v -2.0156 h 1.3906 v -0.60938 c 0,-0.96875 0.26562,-1.6797 0.79688,-2.1406 0.53906,-0.45703 1.375,-0.6875 2.5,-0.6875 z"
         id="path1181" /></symbol><symbol
       id="e-4"
       overflow="visible"><path
         d="m 5.5625,-7.0156 c -0.625,0 -1.1055,0.22656 -1.4375,0.67188 -0.32422,0.44922 -0.48438,1.0938 -0.48438,1.9375 0,0.8437 0.16016,1.4961 0.48438,1.9531 0.33203,0.44922 0.8125,0.67188 1.4375,0.67188 0.61328,0 1.082,-0.22266 1.4062,-0.67188 0.32031,-0.45703 0.48438,-1.1094 0.48438,-1.9531 0,-0.8437 -0.16406,-1.4883 -0.48438,-1.9375 C 6.64448,-6.78903 6.17573,-7.0156 5.5625,-7.0156 Z m 0,-2.0312 c 1.5078,0 2.6914,0.41406 3.5469,1.2344 0.85156,0.82422 1.2812,1.9609 1.2812,3.4062 0,1.4492 -0.42969,2.5859 -1.2812,3.4062 C 8.25393,-0.17578 7.0703,0.2344 5.5625,0.2344 4.0313,0.2344 2.832,-0.17576 1.9687,-1 1.11323,-1.82031 0.6875,-2.957 0.6875,-4.4062 c 0,-1.4453 0.42578,-2.582 1.2812,-3.4062 0.86328,-0.82031 2.0625,-1.2344 3.5938,-1.2344 z"
         id="path1184" /></symbol><symbol
       id="q-7"
       overflow="visible"><path
         d="M 1.4844,-11.766 H 4.875 l 4.2812,8.0625 v -8.0625 h 2.875 V 0 H 8.6406 L 4.3594,-8.0781 V 0 h -2.875 z"
         id="path1187" /></symbol><symbol
       id="p-0"
       overflow="visible"><path
         d="M 10.234,-5.375 V 0 H 7.3902 v -4.1094 c 0,-0.75781 -0.015625,-1.2852 -0.046875,-1.5781 -0.03125,-0.28906 -0.09375,-0.50391 -0.1875,-0.64062 -0.10547,-0.1875 -0.25,-0.32812 -0.4375,-0.42188 -0.1875,-0.10156 -0.40625,-0.15625 -0.65625,-0.15625 -0.58594,0 -1.0469,0.23047 -1.3906,0.6875 -0.33594,0.44922 -0.5,1.0742 -0.5,1.875 V 5e-5 h -2.8125 v -8.8281 h 2.8125 v 1.2969 c 0.42578,-0.51953 0.87891,-0.89844 1.3594,-1.1406 0.47656,-0.25 1.0039,-0.375 1.5781,-0.375 1.0195,0 1.7969,0.32031 2.3281,0.95312 0.53125,0.625 0.79688,1.5312 0.79688,2.7188 z"
         id="path1190" /></symbol><symbol
       id="o-1"
       overflow="visible"><path
         d="m 1.4844,-11.766 h 5.0312 c 1.5,0 2.6484,0.33594 3.4531,1 0.80078,0.66797 1.2031,1.6172 1.2031,2.8438 0,1.2305 -0.40234,2.1797 -1.2031,2.8438 -0.80469,0.66797 -1.9531,1 -3.4531,1 h -2 V -3e-4 H 1.4844 Z m 3.0312,2.2031 v 3.2812 h 1.6719 c 0.59375,0 1.0469,-0.14062 1.3594,-0.42188 0.32031,-0.28906 0.48438,-0.69531 0.48438,-1.2188 0,-0.53125 -0.16406,-0.9375 -0.48438,-1.2188 C 7.2344,-9.42243 6.78128,-9.56306 6.1875,-9.56306 Z"
         id="path1193" /></symbol><symbol
       id="n-1"
       overflow="visible"><path
         d="m 1.3594,-8.8281 h 2.8125 v 8.6719 c 0,1.1758 -0.28906,2.0781 -0.85938,2.7031 -0.5625,0.625 -1.3828,0.9375 -2.4531,0.9375 h -1.3906 V 1.625 h 0.48438 c 0.53125,0 0.89453,-0.12109 1.0938,-0.35938 0.20703,-0.24219 0.3125,-0.71484 0.3125,-1.4219 z m 0,-3.4375 h 2.8125 v 2.2969 H 1.3594 Z"
         id="path1196" /></symbol><symbol
       id="m-0"
       overflow="visible"><path
         d="M 8.4844,-8.5469 V -6.25 C 8.09768,-6.50781 7.71096,-6.70312 7.3282,-6.82812 c -0.38672,-0.125 -0.78906,-0.1875 -1.2031,-0.1875 -0.78125,0 -1.3906,0.23047 -1.8281,0.6875 -0.4375,0.46094 -0.65625,1.1016 -0.65625,1.9219 0,0.82422 0.21875,1.4688 0.65625,1.9375 0.4375,0.46094 1.0469,0.6875 1.8281,0.6875 0.44531,0 0.86719,-0.066406 1.2656,-0.20312 0.39453,-0.13281 0.75781,-0.32812 1.0938,-0.57812 v 2.2969 c -0.4375,0.16797 -0.88672,0.28906 -1.3438,0.375 -0.44922,0.082031 -0.90234,0.125 -1.3594,0.125 -1.5938,0 -2.8438,-0.40625 -3.75,-1.2188 -0.89844,-0.82031 -1.3438,-1.9609 -1.3438,-3.4219 0,-1.457 0.44531,-2.5938 1.3438,-3.4062 0.90625,-0.82031 2.1562,-1.2344 3.75,-1.2344 0.45703,0 0.91016,0.042969 1.3594,0.125 0.44531,0.085937 0.89453,0.21094 1.3438,0.375 z"
         id="path1199" /></symbol><symbol
       id="b-18"
       overflow="visible"><path
         d="m 39.078,-2.3281 c -2.0117,1.043 -4.1094,1.8281 -6.2969,2.3594 -2.1875,0.5313 -4.4648,0.79688 -6.8281,0.79688 -7.0859,0 -12.699,-1.9766 -16.844,-5.9375 -4.1367,-3.957 -6.2031,-9.3281 -6.2031,-16.109 0,-6.7891 2.0664,-12.164 6.2031,-16.125 4.1445,-3.9688 9.7578,-5.9531 16.844,-5.9531 2.3633,0 4.6406,0.26562 6.8281,0.79688 2.1875,0.53126 4.2852,1.3242 6.2969,2.375 v 8.7969 c -2.0312,-1.3828 -4.0391,-2.3984 -6.0156,-3.0469 -1.9688,-0.64453 -4.0469,-0.96875 -6.2344,-0.96875 -3.9062,0 -6.9844,1.2578 -9.2344,3.7656 -2.2422,2.5 -3.3594,5.9531 -3.3594,10.359 0,4.3867 1.1172,7.8359 3.3594,10.344 2.25,2.5 5.3281,3.75 9.2344,3.75 2.1875,0 4.2656,-0.32031 6.2344,-0.96875 1.9766,-0.64453 3.9844,-1.6602 6.0156,-3.0469 z"
         id="path1405" /></symbol><symbol
       id="e-7"
       overflow="visible"><path
         d="m 16.031,-40.953 v 9.0625 h 10.516 v 7.2812 H 16.031 v 13.531 c 0,1.4805 0.28906,2.4805 0.875,3 0.59375,0.52344 1.7656,0.78125 3.5156,0.78125 h 5.2344 v 7.2969 h -8.7344 c -4.0312,0 -6.8867,-0.83594 -8.5625,-2.5156 -1.6797,-1.6875 -2.5156,-4.5391 -2.5156,-8.5625 v -13.531 H 0.7654 v -7.2812 h 5.0781 v -9.0625 z"
         id="path1408" /></symbol><symbol
       id="a-53"
       overflow="visible"><path
         d="M 26.594,-27.234 V -44.312 H 36.86 V 0 H 26.594 v -4.6094 c -1.3984,1.875 -2.9453,3.25 -4.6406,4.125 -1.6875,0.875 -3.6406,1.3125 -5.8594,1.3125 -3.9297,0 -7.1562,-1.5625 -9.6875,-4.6875 -2.5234,-3.125 -3.7812,-7.1445 -3.7812,-12.062 0,-4.9141 1.2578,-8.9375 3.7812,-12.062 2.5312,-3.125 5.7578,-4.6875 9.6875,-4.6875 2.1953,0 4.1445,0.44531 5.8438,1.3281 1.707,0.88672 3.2578,2.2578 4.6562,4.1094 z m -6.7188,20.656 c 2.1875,0 3.8516,-0.79688 5,-2.3906 1.1445,-1.5938 1.7188,-3.9102 1.7188,-6.9531 0,-3.0391 -0.57422,-5.3594 -1.7188,-6.9531 -1.1484,-1.5938 -2.8125,-2.3906 -5,-2.3906 -2.168,0 -3.8242,0.79688 -4.9688,2.3906 -1.1484,1.5938 -1.7188,3.9141 -1.7188,6.9531 0,3.043 0.57031,5.3594 1.7188,6.9531 1.1445,1.5938 2.8008,2.3906 4.9688,2.3906 z"
         id="path1411" /></symbol><symbol
       id="d-0"
       overflow="visible"><path
         d="m 21.875,-6.5781 c 2.1758,0 3.8359,-0.79688 4.9844,-2.3906 1.1562,-1.5938 1.7344,-3.9102 1.7344,-6.9531 0,-3.0391 -0.57812,-5.3594 -1.7344,-6.9531 -1.1484,-1.5938 -2.8086,-2.3906 -4.9844,-2.3906 -2.1875,0 -3.8672,0.80469 -5.0312,2.4062 -1.168,1.6055 -1.75,3.918 -1.75,6.9375 0,3.0234 0.58203,5.3359 1.75,6.9375 1.1641,1.6055 2.8438,2.4062 5.0312,2.4062 z m -6.7812,-20.656 c 1.4062,-1.8516 2.9609,-3.2227 4.6719,-4.1094 1.707,-0.88281 3.6719,-1.3281 5.8906,-1.3281 3.9375,0 7.1641,1.5625 9.6875,4.6875 2.5195,3.125 3.7812,7.1484 3.7812,12.062 0,4.918 -1.2617,8.9375 -3.7812,12.062 -2.5234,3.125 -5.75,4.6875 -9.6875,4.6875 -2.2188,0 -4.1836,-0.44531 -5.8906,-1.3281 -1.7109,-0.88281 -3.2656,-2.2539 -4.6719,-4.1094 V -7e-4 H 4.9058 v -44.312 h 10.188 z"
         id="path1414" /></symbol><symbol
       id="c-66"
       overflow="visible"><path
         d="m 5.3594,-42.516 h 13.953 l 9.6875,22.75 9.7344,-22.75 h 13.922 V 0 H 42.2973 V -31.094 L 32.5004,-8.172 H 25.5473 L 15.7504,-31.094 V 0 H 5.3594 Z"
         id="path1417" /></symbol></defs></svg>
